<?xml version="1.0" encoding="UTF-8"?>
<svg id="_Слой_1" data-name="Слой 1" xmlns="http://www.w3.org/2000/svg" viewBox="0 0 761.16 456.72">
  <defs>
    <style>
      .cls-1 {
        letter-spacing: 0em;
      }

      .cls-2 {
        font-size: 11.52px;
      }

      .cls-2, .cls-3, .cls-4, .cls-5, .cls-6 {
        fill: #1d1d1b;
      }

      .cls-2, .cls-4, .cls-5, .cls-6 {
        font-family: FuturaDemiC, FuturaDemiC;
      }

      .cls-7 {
        fill: #f6f4ca;
      }

      .cls-7, .cls-8, .cls-9, .cls-10, .cls-11, .cls-12 {
        stroke-miterlimit: 10;
      }

      .cls-7, .cls-10, .cls-11, .cls-12 {
        stroke: #1d1d1b;
      }

      .cls-13 {
        letter-spacing: 0em;
      }

      .cls-8 {
        stroke: #000;
      }

      .cls-8, .cls-9, .cls-10 {
        fill: none;
      }

      .cls-14 {
        letter-spacing: 0em;
      }

      .cls-15 {
        letter-spacing: -.04em;
      }

      .cls-9 {
        stroke: #180d1b;
      }

      .cls-16 {
        letter-spacing: -.04em;
      }

      .cls-17 {
        letter-spacing: 0em;
      }

      .cls-10 {
        stroke-width: 2px;
      }

      .cls-18 {
        letter-spacing: 0em;
      }

      .cls-3 {
        stroke-width: 0px;
      }

      .cls-4 {
        font-size: 7.68px;
      }

      .cls-5 {
        font-size: 20.17px;
      }

      .cls-19 {
        letter-spacing: -.04em;
      }

      .cls-11 {
        fill: #b0dde9;
        opacity: .78;
      }

      .cls-6 {
        font-size: 10.56px;
      }

      .cls-12 {
        fill: #a7a7a6;
        opacity: .56;
        stroke-width: 3px;
      }
    </style>
  </defs>
  <path class="cls-12" d="M759.65,455.21L1.55,452.19l1.83-57.68,6.03-2.33,8.26-15.03,4.74-11.39,10.31-8.44,11.83-6.11,28.3,6.44,41.08,2.65,58.8,12.02,53.07,9.51,65.68,5.79,35.82,6.56,45.51,4.02,14.16,3.75,18.73,1.64,16.42,1.16s20.31,2,22.68,2h16.12l13.75-3.16,30.34-4.49h64.46l24.39-3.28h27.76l21.32-3.64,18.29-3.6,18.68-3.68h25.1l17.55-3.06,2.68-1.15,9.48-4.06,1.12-.48-4.76-8.92-4.74-2.15-8.15-9.01-4.72-5.22-.66-4.99-.73-5.44-.4-3.9-1.22-11.91-.16-.91-2.45-14.21,5.56-4.73-2.29-5.47-2.63-4.21,3.08-2.92-.97-3.63,1.82-1.91,3.19-4.42,4.11-9.81,1.01-5.84-2.52-7.35-.02-.23,3.42-3.57-3.95-2.98-8.13-6.11,3.65-5.65.12-.19h2.82l1.88-4.89,2.49-3,3.25-2.42.57-3.56.73-1.92,3.23-.41,2.83-1.3,1.43-1.24,2.04-3.59s2.23-.42,2.57-.5c.34-.08,6.14-1.33,6.14-1.33l.76-2.71-1.3-3.36-1.59-1.08.83-1.13s2.74-.08,3.2,0c.46.09,2.18-.81,2.45-1.19.28-.38.36-2.28.36-2.28l-1.73-2.12,1.92-3.62v-4.33s-.02-.08-.05-.21l9.48,1.62.07-12.09.08-12.96,1.92,284.37Z"/>
  <path class="cls-11" d="M373.25,124.85c-.15.04-.27.07-.34.07h-1.66l2-.07Z"/>
  <path class="cls-11" d="M375.36,124.01c-.58.26-1.54.67-2.09.84l2.09-.84Z"/>
  <polygon class="cls-11" points="380.92 123.13 380.69 123.78 379.55 123.78 380.92 123.13"/>
  <polygon class="cls-11" points="106.98 253.27 108.35 251.38 107.87 252.07 106.98 253.27"/>
  <polygon class="cls-11" points="111.18 248.97 110.87 248.32 111.89 250.12 111.18 248.97"/>
  <polygon class="cls-11" points="117.9 252.57 116.89 252.43 118.4 252.4 117.9 252.57"/>
  <polygon class="cls-11" points="121.19 248.91 122.56 248.73 121.17 248.91 121.19 248.91"/>
  <polygon class="cls-11" points="123.19 249.24 123.81 249.91 123.19 249.79 123.19 249.24"/>
  <polygon class="cls-11" points="123.81 249.91 126.98 250.12 124.85 250.12 123.81 249.91"/>
  <polygon class="cls-11" points="126.98 250.12 129.78 250.08 128.96 250.12 126.98 250.12"/>
  <polygon class="cls-11" points="134.61 240.06 136.54 241.13 130.38 239 134.61 240.06"/>
  <polygon class="cls-11" points="138.52 246.27 140.02 247.33 137.02 245.3 138.52 246.27"/>
  <polygon class="cls-11" points="233.23 170.43 233.47 168.63 233.47 170.69 222.47 170.53 222.39 170.53 222.51 170.47 223.05 170.04 224.03 170.43 225.92 170.43 226.53 170.43 227.87 170.43 229.66 170.43 230.55 170.43 231.44 170.43 233.23 170.43"/>
  <path class="cls-11" d="M239.63,170.59l.02.18h-.12c.01-.11.04-.18.1-.18Z"/>
  <polygon class="cls-11" points="240.05 159.87 240.29 162.63 240.05 161.15 240.05 159.87"/>
  <polygon class="cls-11" points="85.98 218.16 84.4 218.08 86.52 218.03 88.2 217.78 85.98 218.16"/>
  <path class="cls-11" d="M88.83,217.67l-.56.1.63-.29c-.02.06-.05.13-.07.2Z"/>
  <path class="cls-11" d="M93.22,214.71c.5.12,1.07.35,1.7.71-.2.04-.35.04-.41-.04,0,0-.53-.42-1.29-.67Z"/>
  <path class="cls-11" d="M94.92,215.42l1.78-.77c-.66.35-1.35.68-1.78.77Z"/>
  <polygon class="cls-11" points="97.85 236.92 97.91 236.79 98.33 236.79 97.85 236.92"/>
  <path class="cls-11" d="M98.47,213.63c-.23.15-.98.61-1.77,1.03l1.77-1.03Z"/>
  <path class="cls-11" d="M99.66,212.39c.9-.87,2.16-1.89,3.07-1.83,0,0-1.64.6-3.07,1.83Z"/>
  <path class="cls-11" d="M109.71,205.44c.25.11.61.62,1.09,1.8l-.02-.04s-.58-1.47-1.07-1.77Z"/>
  <polygon class="cls-11" points="114.98 211.87 118.29 214.32 116.71 213.34 114.98 211.87"/>
  <polygon class="cls-11" points="149.43 153.94 149.77 154.91 149.64 154.9 149.43 153.94"/>
  <polygon class="cls-11" points="152.42 148.41 152.47 148.83 152.35 148.07 152.42 148.41"/>
  <polygon class="cls-11" points="152.77 152.89 152.72 151.33 152.77 151.9 152.77 152.89"/>
  <polygon class="cls-11" points="151.32 155.07 152.77 155.07 152.77 155.21 151.32 155.07"/>
  <path class="cls-11" d="M101.23,149c0-.5.09-1.32.11-1.53l-.11,1.53Z"/>
  <path class="cls-11" d="M100.77,151.3l1.64,1.15c-.17-.06-1.48-1.03-1.64-1.15Z"/>
  <path class="cls-11" d="M104.44,153.22l1.91.37-.56.15s-.63-.24-1.35-.52Z"/>
  <polygon class="cls-11" points="123.74 158.77 125.09 158.87 124.99 158.95 123.74 158.77"/>
  <polygon class="cls-11" points="128.9 158.7 128.3 158.43 130.14 158.82 128.9 158.7"/>
  <polygon class="cls-11" points="142.71 159.62 143.15 158.61 143.18 159.01 141.7 160.97 142.71 159.62"/>
  <polygon class="cls-11" points="92.01 156.91 93.31 155.96 92.4 156.8 92.01 156.91"/>
  <polygon class="cls-11" points="83.41 158.78 81.97 158.29 83.9 158.87 83.41 158.78"/>
  <path class="cls-11" d="M84.33,180.08l-1-1.27c.28.17.91,1.15,1,1.27Z"/>
  <polygon class="cls-11" points="84.88 157.62 84.88 158.46 85.24 158.77 84.84 159.03 83.93 158.87 84.83 158.87 84.88 157.62"/>
  <path class="cls-11" d="M83.65,167.71c.16-1.14,2.21-2.49,2.34-2.57l-1.77,1.65s-.44.43-.58.92Z"/>
  <path class="cls-11" d="M83.02,193.6l5.06-.69c-.32.06-2.04.36-2.2.36-.14,0-2.12.24-2.86.33Z"/>
  <polygon class="cls-11" points="88.85 184.45 87.89 184.98 89.35 183.76 88.85 184.45"/>
  <polygon class="cls-11" points="90.15 182.67 89.35 183.76 90.27 181.93 90.15 182.67"/>
  <path id="_море" data-name="море" class="cls-11" d="M140.91,289.39l.89-.06.59-.23-1.48.29ZM142.69,291.72l.22.83.2-1.26v-1.59c-.12.3-.42,2.02-.42,2.02ZM408.91,1.5H2.66l.71,393.01,7.86-4.66,2.81-2.2,5.45-6.62,4.74-7.11v-5.64l6.87-4.9v-4.9l9.24-3.19,16.64-16.41s20.58-6.4,19.35-9.65c-.02-.05.03-.15.14-.27l.93-1.8,2.26-4.2,3.94-11.91s5.73-22.24,18.89-6.69c0,0,1.5,8.66,13.26-.23l.39-.45,1.6-.98,1.12-.74,1.78-.67,1.36-1.84,1.18-1.59,2.44-2.27.83-1.23,1-1.53,1.3-1.29,2.2-1.16,2.37-1.16,2.25-1.23,1.84-.61,1.45-.92,1.39-.37,3.52-1.16,2.53-1.59,2.5-.61,4.68-3.31,4.12-3.55,3.52-3.13,2.31-2.7,1.54-2.39,1.66-2.02c.1-.04.19-.09.29-.13,3.99-1.83,1.61.87,1.61.87-3.02,6.8,6.69,1.53,6.69,1.53l2.43-2.02,2.43-2.33,2.2-2.15,2.61-1.1,2.25-1.74.24-.44-1.66-.66-6.86.83-.49-5.22-5.97,1.15-.94-.41v.43l-1.74.16h-2.84l-2.37-.65-1.74-.49-2.37.82h-2.78c-3.08-2.71-3.77.33-3.77.33l-3-.25c-2.29-2.53-5.69-.33-5.69-.33l-2.37-.33c-6.87-6.54-19.99,7.93-19.99,7.93-4.11,5.07-8.41,5.8-8.41,5.8-3.86-.07-7.3-10.43-7.98-12.59l-.5-.46.38-1.72.33-1.71v-3.68l-.33-1.84-1.38-2.03-1.19-1.84-1.36-1.29-1.66-.43-1.3-.67-2.04-1-3.87.41-4.03,2.7-3.35,3.27-2.34,2.12-1.98,2.45-1.1,2.54-.4,3.43.4,2.7.71,1.31.39,2.54-1.1,1.63-.63,2.95.63,1.96,1.58,1.8.95,1.7v1.81l-2.13.58h-3.32l-1.98-.58-1.58-.62-1.66,1.2h-1.34v-1.2l.77-1.2v-1.21l-.93-.43-1.34,1.64-.87,1.2h-.79l-1.58-1.2-1.1-1.45.31-1.63,1.9-1.39,1.58-2.94,1.98-3.27,1.74-4.25,1.26-5.15,2.06-6.13c4.26-6.45,6.79-19.62,6.79-19.62l1.42-7.52-.06-2.56.42-3.92v-3.58l-.29-2.18-.36-2.57-1.01-2.08-.53-2.33-.24-2.82-.36-2.33v-1.98l-1.08-1.47-.95-1.47-.39-2.45-.47-1.96v-3.27l-.48-2.94-.55-2.45-.48-3.27v-2.94l.71-2.2.16-2.37,1.33-2.21.96-2.12.79-1.63.46-.66v-.98l.91-1.66,1.54-2.45,1.42-2.39,1.19-2.15,1.26-1.53,1.47-1.35,1.78-1.04,1.78-.45h1.23l1.48.49,2.55,1.16,2.78,1.47,1.67.26,2.02.55h2.31l1.95-.41,2.67-.41h4.09l2.31.82,2.43.49,4.15.37h2.96l3.08-.55,2.08-.74,1.72-.39,1.48-1.39.37.26-.06-.26.95-.23,1.25-.58,1.04-.62s.44-.49.53-.52c.09-.03,1.66.03,1.78,0,.12-.03,1.89.49,1.89.49l.21.34,1.45.14h.83l1.78-.14,1.39-.34,1.33-.5,1.04-.33h.31l.02-.13,3.14.12c17.36,19.74,38.69,2.7,38.69,2.7l9.84-4.6,6.28-3.74,8.41-5.94,7.35-6.37c5.81-2.95,17.36-16.67,17.36-16.67,5.98-1.35,27.14-34.2,27.14-34.2l4.92-6.37,5.21-6.19,6.4-9.26,4.03-8.03,3.62-6.37,1.54-2.21,1.19-1.04.47-1.29,1.6-1.66,2.25-3.43,2.01-4.47,1.72-3.87,3.26-5.45.42-1.66.65-1.53h2.55l6.58.43-.83,2.06-.83,1.56.42,2.82c2.78,6.56-2.43,6.44-2.43,6.44-5.39,2.21-4.98,5.4-4.98,5.4l-2.2,1.96-1.24,1.16c-2.25.62-3.91,5.03-3.91,5.03l-1.24,2.14-1.42,1.41-2.84,2.94s-1.07,2.21-1.12,2.39c-.06.18-2.08,4.6-2.08,4.6l-.36,1.53-.89.25-3.14,4.78c-1.84,2.88,0,4.35,0,4.35v2.27l-.65,1.66-1.66,1.29-2.37,3.07-1.36.37-3.32,3.56-4.32,3.92-3.38,3-4.92,5.39-4.09,5.33-3.14,5.64-4.39,5.82-7.58,6.87c-5.57,2.82-12.8,13.36-12.8,13.36-2.37,4.53-14.87,11.95-14.87,11.95-2.96.3-4.27,2.76-4.27,2.76.35,3.55-.59,4.9-.59,4.9l-2.66,1.53c-2.25,1.29-.42,2.2-.42,2.2l1.54.98c3.62-1.84,5.33,3.24,5.33,3.24l1.78.75,2.13,1.96c3.14.86,4.03-.92,4.03-.92,1.12-2.02,2.31-1.78,2.31-1.78l3.26,1.41,1.66-.31h2.25l4.62.92,3.44.98.09.6.84-.89,3,.17,3.79,1.84,4.11-.7s5.69-1.63,6.16-1.96c.48-.33,2.06-1.47,2.06-1.47l3.63-2.58h3.32l4.11,1.92,4.42,1.8,1.58,2.99,1.42,4.04,1.58,2.94,3.63,3.27,3.55,1.71.55.25,2.04-2.94,2.84-1.31,3.16,2.78,3,2.78h3.91l2.57-1.14,3.48,1.14h2.84l.65,1.16,4.44.06,1.67.02,8.3.12,4.59.06,4.2.06.87-.5v-3.11l3.09-.33h2.84l3.48-.82,3-2.29.79-2.62h3.95l3.32,1.63,1.08-.4,6.43-3.66s0,0,0,0c3.6-3.48,8.58-10.8,4.5-22.59l-3.32-6.37.16-1.47-2.06-2.13.48-2.62h.77l-1.22-2.24.95-4.41-2.05-4.9s.63-7.19,1.11-7.68c.47-.49-.32-5.72-.32-5.72l-.79-7.03-1.26-7.52-1.26-8.34-1.74-6.21-1.26-4.9-1.9-6.21v-5.56l.95-4.41,1.89-1.63s7.11-5.56,6.48,6.7l1.26.49.95-1.96-.47-2.29.95-1.96,2.21-.17,1.11,1.31,1.74-.16,3.79-3.22,1.42-4.79,1.9-3.6-.16-4.41-1.11-1.96.9-1.6-.58-5.35,2.53-7.59-1.27-10.72,23.81-5.33v-.04ZM66.37,280.26s.24,3.19-1.34,4.57l-3.63,2.29-2.05,1.47-1.58,2.29-1.11.98-1.58,2.12-2.53,4.66-1.9,3.6-1.03,2.37-2.29,1.96-2.45,1.74s-3,1.2-3.95,3.66l-5.93,10.3s-1.97,4.41-4.74,9.23l-4.03,4.09-4.98,4c-1.71,1.72-3.42,3.43-5.13,5.15-2.29-.14-4.87-.58-5.29-1.94-.62-2,4.06-3.96,8.85-8.5,8.97-8.51,12.18-19.02,16.43-23.54,2.52-2.69,3.63-2.76,6.32-5.89.82-.95,1.31-1.63,1.71-2.25.78-1.2,1.21-2.14,3.03-4.29.52-.61.86-.98,1.27-1.4.72-.73,1.66-1.62,4.1-4.16,2.65-2.76,3.99-4.16,4.74-5.23,1.1-1.56,2.55-4.09,3.48-7.85,0,0,7.11-13.59,5.61.55Z"/>
  <path class="cls-12" d="M758.72,1.5h-361.8c-.73,1.1-1.95,1.86-3.64,1.84-1.67-.02-5.24-.83-6.72.1-1.98,1.24-1.85,7.37-1.94,9.39-.26,5.94.12,11.81-.31,17.68,2.58-1.96,6.13-6.24,6.13-6.24l6.64-7.19,5.69-1.96s.63-4.9,3.79-3.6c3.16,1.31,4.42,6.87,4.42,6.87l4.74,9.81,5.06,12.1,4.42,3.6,4.74,4.9s3.48,6.87,6,5.88c2.53-.98,8.22-7.19,12.01-6.21,3.79.98,13.27,6.31,13.27,6.31,0,0,6.32.56,10.74,6.77,4.42,6.21,8.22,5.23,8.22,5.23l2.84,7.52,10.43,5.88h6.32s3.16-1.63,6,2.94c2.84,4.58,12.96,8.83,12.96,8.83l9.8,4.58h4.11l5.69,2.29s5.69-6.54,7.9-5.56c2.21.98,6-3.92,10.74,3.27,0,0,1.58,5.56-4.42,7.19,0,0,1.58,14.71,16.75,13.4,0,0,6-1.31,7.27-5.23,0,0,1.9-8.17,4.42-7.52,0,0,6.32,2.94,9.48,1.31l7.9-2.62,8.53-1.31,8.53-.33,10.43.98,7.58,1.96,9.16-.33s4.74,4.58,8.85,4.25c0,0,8.22-1.63,15.48-8.5,0,0,9.8-5.56,12.96-2.62l3.16,11.77,3.79,8.26,4.11,6.78-2.53,3.92h2.53l1.26,6.54s1.9,4.58,5.69,2.94c0,0-1.26-16.02,6.95-1.31,0,0,6.32-4.9,7.27,5.88l6.32,6.54s2.21,2.29,0,7.19c0,0-2.53,8.17,7.58-1.63l1.26,8.17h3.48l3.16-1.96s2.84,4.25,5.37,4.58v14.38s7.9,2.94,3.16,8.17c0,0,6-.33,5.69,9.81l-.44,1.22c1.15-.08,2.34-.06,3.53-.01l-3.06-3.93,9.42,1.41,1.14-194.39Z"/>
  <path class="cls-7" d="M71.98,276.76s1.42,2.21,3.44,1.53l5.27-2.7-4.8-.31-3.91,1.47Z"/>
  <path class="cls-7" d="M87.74,271.74l-1.48,1.16s-.53.5.41.93h9.01s1.07-1.42-2.25-2.4l-2.07.74-2.37-.25-1.24-.18Z"/>
  <polygon class="cls-7" points="113.24 268.42 112.45 269.4 111.89 270.38 112.57 271.12 113.55 271.43 115.21 271.43 116.08 271.43 116.87 269.93 116.87 269.16 115.77 269.08 114.9 268.42 113.24 268.42"/>
  <path class="cls-7" d="M126.03,261.39l-2.05,1.23-1.42,2.29-1.03,1.47-1.58.49-.55.82.55.74,1.58.57,1.18-1.06,1.34-1.47.24-1.27s.39-.37.63-.45,1.11-.98,1.11-.98l.95-.9-.95-1.47Z"/>
  <path class="cls-7" d="M134.41,255.84s-3.95.16-4.82,3.68l.55.65s5.61-3.27,4.27-4.33Z"/>
  <path class="cls-7" d="M150.37,256.82v-1.23h-2.13l-1.97.25h-1.58l-2.29-.25-1.5.25-1.18.37s-1.9,1.76,0,2.66c0,0,6.95-.65,10.66-1.63"/>
  <path class="cls-7" d="M158.35,258s-2.13-2.98.87-1.68l2.37.67h2.53l1.66-.43.87.43,1.5.23,1.82-.23s7.5-3.86,3.32,1l-1.9.53h-2.21l-1.9-.53-1.82.53h-5.92l-1.18-.53Z"/>
  <polygon class="cls-10" points="758.01 455.21 1.55 452.19 2.66 1.5 758.72 1.5 758.01 455.21"/>
  <polygon class="cls-9" points="690.78 384.89 676.4 387.14 661.19 388.57 679.87 384.89 690.78 384.89"/>
  <polygon class="cls-9" points="712.26 333.88 711.65 336.52 710.43 324.61 710.27 323.69 710.77 324.88 712.26 333.88"/>
  <polygon class="cls-9" points="717.63 252.41 709.49 246.3 713.14 240.65 713.44 240.71 709.44 246.3 717.63 252.41"/>
  <polygon class="cls-9" points="718.16 356.07 713.44 350.85 712.77 345.86 715.27 350.85 718.16 356.07"/>
  <polygon class="cls-9" points="735.49 378.64 731.17 379.98 725.21 380.69 734.68 376.63 735.49 378.64"/>
  <path class="cls-9" d="M93.22,214.71c-3.26-.83-3.91,2.57-3.91,2.57l-.42.19c1.2-3.13,3.08-3.18,4.32-2.76Z"/>
  <polygon class="cls-9" points="97.34 237.06 97.85 236.92 97.36 237.94 97.34 237.06"/>
  <path class="cls-9" d="M99.66,212.39c-.51.5-.91.95-1.06,1.12.31-.42.68-.79,1.06-1.12Z"/>
  <polygon class="cls-9" points="98.33 236.79 99.13 236.62 98.94 236.79 98.33 236.79"/>
  <polygon class="cls-9" points="99.89 235.95 100.04 234.83 100.04 235.81 99.89 235.95"/>
  <polygon class="cls-9" points="106.68 228.87 106.44 230.58 106.6 232.46 106.29 229.5 106.68 228.87"/>
  <path class="cls-9" d="M109.7,205.44c-.61-.23-.65,1.89-.65,2.45-.02-2.2.29-2.66.65-2.45Z"/>
  <polygon class="cls-9" points="113.79 221.27 112.37 222.73 110.47 224.45 113.79 221.27"/>
  <line class="cls-9" x1="86.72" y1="218.03" x2="86.52" y2="218.03"/>
  <polyline class="cls-9" points="245.53 156.06 245.68 157.05 245.38 158.33 245.98 158.82 246.21 159.87 244.91 159.87 242.74 159.87"/>
  <polyline class="cls-9" points="241.12 163.24 241.65 164.34 242.13 165.75"/>
  <path class="cls-9" d="M240.64,166.12l.24,1.41.29,1.84v1.1s-1.3.12-1.54.12"/>
  <path class="cls-9" d="M233.47,170.69v1.19l-.59,1.78-.89.55-1.48.06-.3,1.11.89,1.04-.24.86,1.19.06.71-1.35.42-.06.71,1.04.59-.19v-.67l.83-.37,1.01-.25,1.48.31.95.06,1.25-.79v-1.47l-.36-1.66s-.14-.8-.1-1.16"/>
  <path class="cls-9" d="M130.37,235.86c-.81-3.42,2.06-2.51,4.24-2.87.79-4.69-1.53-4.45-5.03-5.95,0,0-4.71-6.04,2.51-4.55,8.97.12,3.98,8.92,15.74,8.01-.96,2.37-3.89,3.87-1.82,6.7,0,0,9.95-1.47,9.95-1.47-.98-1.65-1.6-4.13,1.19-4.17,0,0-.48-2.94-.48-2.94,5.07-.7,4.22,1.72,8.12,1.25,1.1,2.89,5.62,2.89,7.52,5.4.96-2.6,7.77-.12,3.44-3.99,1.52-.77,3.19-2.39,4.21-3.74-3.54-.05.11-1.43-2.31-1.71l1.07-1.35c-2.34-.5-4.52.93-3.67-2.52,2.41.33,2.9-.54,2.84-2.82,0,0,1.3-.55,1.3-.55,3.68,1.86,7.43-2.2,11.5,1.29,2.06,1.25,5.43-6.85,1.48-5.95-3.19-2.69,5.62.29,2.25-5.03-4.53,3.21-3.96-1.9-7.47,2.45-1.95-1.46.49-8.53,2.02-6.56.51-1.01.14-2.48.29-3.31,1.5.15,3.06-1.64,3.44.12.57,1.67-1.77,3.21.83,4.17,3.21.64-.78-3.01.35-4.48,4.17,3.81,1.22-2.15,2.55-4.04-2.69-.96-1.6.88-4.09.86-3.73.4-4.06-3.45-1.72-4.84,2.07-3.02,1.36,4.51,9.66-.98-.79-2.05.82-1.73,1.72-2.57,1.35-3.44,9.23,5.44,6.69-2.27-2.01-1.79,1.42-2.67.48-4.35h.89l-.71-1.23c3.39.25-2.27-1.97,4.57-3.92.68-1.1-1.2-1.67-.59-2.88,1.13.24.7-.45.59-1.17,3.29-2.34,4.02,1.88,7.05,1.71,1.86,2.07,4.57-1.76,1.66-1.96-2.04,3.1-1.65-2.83-.25-3.12"/>
  <line class="cls-9" x1="123.19" y1="249.24" x2="122.86" y2="248.69"/>
  <line class="cls-9" x1="121.17" y1="248.91" x2="119.4" y2="249.46"/>
  <polyline class="cls-9" points="115.45 252.24 116.87 252.43 116.89 252.43"/>
  <line class="cls-9" x1="115.11" y1="250.57" x2="114.38" y2="248.89"/>
  <line class="cls-9" x1="106.97" y1="253.28" x2="106.41" y2="254.6"/>
  <path id="ozersky" class="cls-9" d="M464.2,403.28v-4.92l2.21-1.8-1.11-2.62-1.11-1.25,1.11-2.51-1.11-1.96v-2.45l2.21-1.31,1.42-.82-1.82-.82,1.82-1.8.95-2.62.79-3.6h-2.69l-2.69,1.31-1.74-1.31,1.11-4.09.79-2.78h1.66v-3.43h1.5l-.32-2.62,2.37-2.12-3.55-3.76.71-2.12-.71-2.12h-1.34l.47-1.96h-1.11l-.32-2.94-1.26-.65h-1.58l-.95-2.45h1.9l-1.9-4.09,4.82,1.31,2.61-1.31-.47-2.78,3.48-1.31,4.42.65,5.06.49,7.9-.16s4.58.16,3.48-8.99l4.9-1.8h2.21l2.53-1.96,3.16-2.94,2.69,1.47,3.32-2.62-3.63-10.79h2.69l.95.98,2.37,1.8v1.96l-.95,2.12,2.05.49v2.45l2.53,2.62,3.79,1.14,1.74-.65,1.26-7.85.95,1.63,2.21.49,2.05-1.96.79-3.24-3.32-1.99,3.32-6.37,3.32.82,3.32,1.14,4.27,1.14h2.69l1.9,2.12,1.58,3.13,3,.95,2.53-.95,1.9,1.77-.63,1.96-.95,3.6.16,3.76v7.52l2.69.82,3.95-1.31,2.21-.49,1.11.98,2.05-1.8,1.9.65,2.69.98,1.42.49,1.42-.82.79.65h2.05l1.11.65,1.58-.49.79.98,3.16.33.95,1.96,2.37,1.47,2.69,1.14,1.11.82,4.58-2.12,4.74-.82,3.48.98,2.21,3.43,1.74,1.47,2.05-.65v-1.63h1.74l3.55.16h2.92l2.84-.65,2.84-1.63h1.11s3.05,2.66,3.05,2.66l1.93.78-1.42,2.45-.17,1.95,2.54.74-.51,1.94.51,2.08v2.11l.71,3.43-.24,2.21-1,3.72-.55,5.17,2.98,4.84v6.62l-5.77-.65-2.18,3.23-2.14,3.49-.34,4.23-2.61.49-1.9,2.94-2.53.49-.08,1.47.25,1.2-148.05,10.58Z"/>
  <path id="slavsky" class="cls-8" d="M619.06,157.63c-.56,1.01-.96,1.89-1.5,2.68-1.05,1.54-2.02,3.06-2.01,5.05,0,.56-.38,1.25-.8,1.64-1.56,1.47-2.5,3.11-1.69,5.34-2.71.82-4.47-.86-6.89-1.91-.5,1.85-.98,3.64-1.44,5.43-.07.27-.11.7.03.85,2.04,2.02.14,4.37.76,6.61-1,.17-1.84.27-2.66.47-.53.13-1.29.28-1.48.67-1.2,2.37-3.5,2.09-5.49,2.42-1.22.2-2.5.04-3.3.04-.2,2.03-.52,3.88-.54,5.73-.02,2.23.21,4.47.35,6.94-.56,0-1.22-.03-1.89,0-1.46.08-2.47.81-3.39,1.99-.99,1.29-2.31,2.31-3.48,3.46-1.14,1.13-2.22,2.34-3.44,3.37-.46.38-1.35.65-1.87.47-1.68-.61-3.28-.77-4.94-.07-.88.37-1.39-.01-1.95-.79-.93-1.29-2.01-2.46-3.14-3.58-.83-.83-1.81-1.39-3.06-.63-.2.12-.88-.28-1.15-.6-3.89-4.6-7.74-9.22-11.6-13.84-.26-.31-.71-.59-.75-.93-.32-2.56-2.38-3.16-4.23-3.98-1.61-.72-3.39-2.13-4.84-1.85-1.54.3-2.88,2.12-4.13,3.45-3.95,4.2-8.8,3.97-13.76,2.92-1.25-.26-2.29-.45-3.39.29-.71.48-1.23.42-2.07-.16-.84-.57-2.21-.44-3.34-.46-.59-.01-1.19.29-1.92.48-.02-1.48-.66-2.23-2.04-2.29-.26-.01-.6-.32-.74-.58-.87-1.55-2.87-1.77-4.01-.38-1.32,1.61-3.24,1.96-5.03,2.62-.62.23-1.38.56-1.68,1.08-1.14,2-2.09,4.11-3.16,6.16-.48.91-1.06,1.77-1.63,2.62-1.02,1.51-2.38,2.16-4.24,1.81-.59-.11-1.61.03-1.84.42-1.69,2.85-4.15,3.98-7.47,3.58.35,1.97.62,3.66,2.09,4.95,2.47,2.18,4.39,5.02,7.7,6.2,1.24.45,2.23,1.52,1.59,3.14-.43,1.08.1,1.5.94,2.02.78.48,1.37,1.27,2.31,2.17-1.68.53-2.79.93-3.93,1.22-1.05.26-1.57.85-1.48,1.95.12,1.37-.54,2.26-1.6,2.99-.38.27-.9.76-.88,1.13.08,1.74-.97,1.83-2.22,1.78-2.56-.1-5.13-.13-7.68-.32-2-.15-3.45.18-4.29,2.39-.63,1.63-1.73,3.19-3.81,3.31-1.42.08-2.55-.16-2.8-1.97-.15-1.06-.74-2.04-1.01-3.09-.44-1.71-1.93-2.12-3.17-2.08-.82.03-1.61,1.24-2.4,1.93-.38.33-.84,1.03-1.1.96-.48-.13-.96-.64-1.23-1.12-1.09-1.89-2.05-3.88-3.19-5.74-.35-.57-1.1-.93-1.73-1.26-1.73-.91-3.81-1.3-4.49-3.61-.14-.47-.78-.81-1.24-1.14-1.06-.77-2.15-1.5-3.19-2.23,1.74-2.33,3.43-4.57,5.09-6.83,1.52-2.07,2.53-4.39,3.01-6.92.86-4.47,3.04-8.16,6.1-11.43,1.52-1.63,2.82-3.48,4.18-5.27.64-.84,1.22-1.56,1.01-2.92-.14-.88.99-1.96,1.64-3.12-1.08-.87-2.16-1.79-3.3-2.61-.29-.21-.83-.17-1.22-.09-.37.08-.7.37-1.05.57-3.6,2.04-4.23,1.9-6.89-1.52-1.71-2.21-4.12-3.02-6.71-3.22-.85-.06-1.79.54-2.61.99-1.47.8-2.44.52-3.08-1.06-.18-.42-.32-.87-.52-1.28-1.52-3.02-3.79-3.27-6-.62.82,1.47,2.68,2.71,1.38,4.63-1.63-.64-3.1-1.32-4.65-1.76-.6-.17-1.41.1-2.04.38-2.23.99-4.42,2.07-6.81,3.2-.13-.81-.21-1.3-.26-1.61-.7-.43-1.39-.71-1.89-1.18-1.95-1.86-3.79-3.86-5.8-5.65-.66-.59-1.71-.79-2.61-1.03-.82-.22-1.39-.49-1.23-1.48.02-.11.05-.27,0-.34-1.61-2.07-1.27-4.79-2.24-7.07-.37-.86-.5-1.88-.49-2.83.01-1.08-.21-1.75-1.36-1.98-1.02-.21-1.69-.79-2.28-1.82-.45-.77-1.75-1.12-2.74-1.45-.89-.29-1.29-.65-1.34-1.67-.03-.56-.54-1.31-1.04-1.59-1.39-.79-2.08-2.17-1.46-3.69.45-1.12.73-2.14.09-3.3-.18-.33.07-.93.18-1.39.05-.21.41-.45.37-.55-1.08-2.42,1.57-3.55,1.75-5.45-1.5-.63-2.99-1.47-4.58-1.86-1.19-.29-2.52-.4-3.53.98-.61.82-1.68,1.37-2.65,1.8-1.03.46-1.62.1-1.37-1.23.89-4.66,1.74-9.33,2.59-13.99.1-.56.19-1.13.32-1.98-2.89,0-5.67-.15-8.41.11-.61.06-1.33,1.48-1.59,2.4-.48,1.66-1.42,2.1-3.02,2.14-1.55.04-3.08.6-4.64.77-1.08.12-2.43.38-3.23-.13-1-.63-1.07-2.01-.62-3.32.63-1.81.53-3.61-.51-5.32-1.63-2.68-.51-5.51-.38-8.29.12-2.4.49-4.83.21-7.19-.81-6.83-1.64-13.67-2.93-20.41-1.21-6.27-2.94-12.45-4.59-18.63-1.07-4.04-.87-8.02.09-11.99.45-1.86,4-3.89,5.69-3.19.78.32,1.46,1.24,1.86,2.06.39.79.41,1.79.49,2.71.08.92.02,1.85.02,2.75,1.48,1.05,2.07.88,2.44-.84.15-.69-.23-1.49-.11-2.2.13-.8.35-1.89.91-2.24.52-.33,1.53.12,2.32.26.84.15,2.02.78,2.46.43,1.69-1.35,3.86-2.3,4.45-4.77.32-1.34.62-2.76,1.29-3.93,1.73-3.01,2.13-6,.67-9.23-.16-.36.13-1.11.44-1.47,2.55-2.89,5.16-5.73,7.74-8.59.73-.81,1.48-1.62,2.16-2.47,1.62-2.03,3.54-3.58,6.12-4.19,1.46-.34,2.47-1.05,3.01-2.68.77-2.36,2.49-2.66,4.14-.78.97,1.1,1.74,2.45,2.34,3.8,3.39,7.67,6.68,15.39,10.08,23.05.45,1.01,1.26,1.94,2.11,2.65,3.72,3.1,7.34,6.27,9.71,10.64.35.65.84,1.25,1.36,1.78,1.17,1.22,2.4,1.57,3.94.45,2.35-1.73,4.8-3.33,7.23-4.95,1.55-1.03,3.2-1.18,4.89-.37,2.68,1.29,5.34,2.62,8.04,3.88,2.06.96,4.11,1.97,6.25,2.72,3.42,1.2,6.11,3.33,8.33,6.15,2.02,2.57,4.15,4.96,7.59,5.55.45.08.84.67,1.21,1.06.14.15.16.43.24.64q2.15,6.02,7.73,9.08c.4.22.85.38,1.2.67,3.19,2.62,6.88,2.39,10.6,1.92,2.25-.29,3.8.67,4.86,3.15-3.4,1.74-5,5.71-3.78,9.5.14.42.36.92.7,1.15,1.69,1.14,2.06,2.95,2.54,4.75.74,2.78,1.32,5.57,3.32,7.87,2.21,2.55,4.98,3.55,8.11,3.87.42.05.89-.38,1.35-.57,1.41-.57,2.82-1.17,4.25-1.69.29-.1.82-.02,1.04.19,1.35,1.3,2.96,1,4.54.84.35-.04.91-.32.95-.57.3-1.7,1.58-1.71,2.84-1.85,1.19-.13,2.27-.4,2.08-2.06-.04-.32.25-.96.44-.99,1.85-.24,1.85-1.83,2.22-3.09.32-1.09.75-1.72,2.03-1.59.53.05,1.19-.28,1.65-.64.72-.56,1.36-1.25,1.95-1.95,2.72-3.22,6.56-3.17,10.19-3.45,2-.15,5.01,2.7,5.37,4.53.44,2.26-.75,4.47-3.27,5.72-1.02.51-1.33,1.14-1.07,2.2,2.12,8.47,7.71,12.99,16.3,12.44,4.32-.28,7.53-3.18,8.8-7.33.44-1.43,1.08-2.8,1.65-4.19.49-1.18,1.33-1.53,2.49-1.01,4.1,1.83,8.06,1.68,12.24-.13,3.1-1.34,6.52-1.91,9.8-2.82.1.18.21.37.31.56-.63.64-1.34,1.22-1.89,1.93-2.24,2.93-4.87,5.39-8.31,6.73-1.77.69-1.18,2.09-1.31,3.33-.14,1.31.97,1.2,1.66,1.58.9.5,2.41.83,2.58,1.52.38,1.53.39,3.15-.66,4.77-1.15,1.78-1.69,3.97-2.47,5.98-.27.7-.44,1.44-.72,2.13-.36.89-.27,1.52.49,2.25,2.53,2.44,2.29,3.7,0,5.82-.63.59-1.29,1.14-1.74,1.54,1.31,3.02,2.48,5.94,3.84,8.77,1.36,2.82,3.71,3.39,6.32,1.73.19-.12.38-.22.81-.47,1.14,3.27,3.64,2.42,6,2.15.59-.07,1.33-.1,1.78.2,2.69,1.83,5.32,3.77,8.11,5.76Z"/>
  <polygon id="nesterovsky" class="cls-9" points="734.68 376.63 725.21 380.69 717.71 381.58 711.43 381.56 704.21 384.52 691.55 384.77 690.78 384.89 679.87 384.89 661.19 388.57 655.55 389.1 639.02 391.5 626.94 392.7 618.41 392.7 612.01 391.5 612.01 389.53 614.61 389.53 616.98 386.1 619.12 386.1 619.12 382.42 621.25 378.99 623.62 374.82 625.28 374.82 629.54 376.3 629.54 369.18 626.23 363.79 627.17 358.88 628.12 355.45 626.94 353.25 628.36 353.25 627.17 350.06 628.12 348.59 626.94 346.38 627.65 343.68 625.04 343.68 625.28 340.99 626.7 338.53 625.04 338.53 623.86 335.1 621.72 335.1 625.04 331.91 626.23 329.71 625.99 327.99 623.86 324.31 627.17 323.09 629.54 321.86 629.54 315.24 627.17 315.24 625.99 313.77 626.7 311.08 624.8 311.08 625.75 306.66 629.54 305.68 629.54 303.23 627.89 299.06 625.04 295.87 626.46 294.4 628.12 291.95 632.15 291.95 633.34 289.01 634.76 288.02 635.94 286.31 639.74 286.31 641.63 284.84 639.97 280.18 639.5 275.03 639.74 270.62 638.31 270.62 637.37 268.17 628.6 268.17 626.82 265.47 628.12 265.47 627.89 263.02 628.36 257.38 630.49 256.15 631.91 254.19 630.73 250.51 631.91 250.51 632.63 247.08 630.26 244.38 637.37 244.38 637.84 241.93 635.94 239.48 636.89 238.01 635.47 235.8 636.42 232.86 638.55 231.63 641.63 231.63 644.48 229.18 646.37 229.18 647.56 232.37 649.22 234.09 651.35 233.6 653.96 232.62 655.62 232.86 658.93 232.86 660.83 231.39 662.49 231.39 664.14 230.41 667.7 230.17 669.12 230.9 672.2 231.14 675.76 231.14 677.65 231.88 679.79 234.57 679.79 240.71 682.63 240.95 685.24 240.46 687.13 240.95 690.45 240.22 692.82 239.23 696.38 238.99 697.8 236.78 701.12 236.78 703.96 237.77 708.94 239.48 712.02 240.46 713.14 240.65 709.49 246.3 717.63 252.41 721.58 255.39 718.16 258.97 718.18 259.2 720.7 266.55 719.69 272.39 715.58 282.2 712.39 286.62 710.57 288.53 711.54 292.16 708.46 295.08 711.09 299.29 713.37 304.76 707.82 309.48 706.81 310.34 707.2 311.91 707.28 316.64 710.27 323.69 710.43 324.61 711.65 336.52 710.53 341.37 712.77 345.86 713.44 350.85 718.16 356.07 722.16 363.32 728.13 370.2 732.88 372.13 734.68 376.63"/>
  <path id="pravdinsky" class="cls-9" d="M268.29,385.33l22.27,3.14,15.64,1.22h11.85l8.9,2.02,10.58,2.09,12.28,1.13,14.69,1.96,10.1,3.01,3.48,1.31,6.65-1.37,5.08-1.32,5.22,1.44,11.33,1.51,8.69.47,7.44,1.01,1.42,1.8,7.1-.82,9.01-.24,9.97-1.19,9.93.78,4.27-.42v-4.5l2.21-1.8-1.11-2.62-1.11-1.25,1.11-2.51-1.11-1.96v-2.45l2.21-1.31,1.42-.82-1.82-.82,1.82-1.8,1.74-6.21-2.53-.08-1.42.82-1.26.33-1.9-1.06,1.9-6.87h1.66v-3.43h1.5l-.32-2.62,2.37-2.12-3.55-3.76.71-2.12-.71-2.12-.87.41v-2.37l-.95.57-.41-2.9-.07-.62-1.9-.65h-1.26l-.63-2.45h1.9l-1.9-3.35v-1.31h-2.21l-1.42-6.37-1.9,1.31-.79.16-1.42-2.45h-2.53l-1.58.98-.16-1.96h-1.11l-.16-1.14h-1.42l-1.26-1.47h-2.21l-1.26-2.45-3-.82-2.37,2.29.16.82-2.21-.49h-1.58l-1.11-1.8-.16-1.8h-6.16l-1.9-1.63h-2.05l-1.26,1.31v1.63l-.95-.65-.79-.82-.47-1.47-.47-3.92-.47-3.6-.47-2.29-1.9-1.14-1.26.82-1.74-.82-.95-1.31-.16-1.63h-2.53l-1.74-1.14-1.58,1.31-3.63.65-8.37,2.78-6.32,1.63-2.69.82-5.69.98s-.32,4.9-2.37,3.76l-2.05-3.6-3.32.16v1.31l-1.27-.82-1,2.53-.42,1.06-2.37-1.8-.79-.98-4.11-17.82-72.52,6.05-2.69-8.34h-5.37l-6.64,1.63-1.11.98-1.58,1.63-3,1.39-.79-.9-.79,2.29-1.58,3.92,2.37,3.92,2.53,3.76.47,3.11,1.58,1.31,2.53-.98,1.58,2.12,2.21,1.96-2.53.33-1.58,5.07-.79,4.25,3.63,6.87,3.16,7.19,3.32,4.05-2.53,1.34-2.05-.33v1.07l-2.84,1.22.32,2.45-2.21,2.12-1.74,4.9-1.9,4.58.16,3.6,1.9,2.45-2.53,1.96-2.21-.33-1.26,2.45,1.42,2.62,2.38,4.37Z"/>
  <path id="bagrationovsky" class="cls-9" d="M281.4,350.84l-2.53,1.34-2.06-.33v1.07l-2.84,1.22.32,2.45-2.21,2.12-3.45,9.04-.06,3.32,1.93,3.17-1.88,1.46-2.86.17-1.26,2.45,3.12,6.9-19.71-1.74-11.7.81-6.25-2.12-5.59-3.21-6.64-1.03-20.89-2.79-29.01-3.89-22.19-3.99-18.12-3.08-18.45-2.51,2.3-3.21-1.15-4.41-2.48-4.09-1.42-3.11,1.58-4.41-4.11-3.76-2.05-2.78-2.21.82-2.21-2.45-3-9.48-3.35,3.27-4.86,1.96-6.16,1.14-3.62-1.96.14-.27.93-1.8,2.26-4.2,3.94-11.91s5.73-22.24,18.89-6.69c0,0,1.5,8.66,13.26-.23l1.14,2.87,3.82-1.8.37.62.42.69,4.9-.82,2.37.82,2.21,1.31-2.37,1.48,2.37,1.3,3.32-1.3,1.42-3.77h3.32l2.37,1.15,1.58,1.31,1.58.33.79-5.56.95-3.91v-3.44h7.58l1.42-1.31v1.47l2.37-.49.95,1.15h2.37l.79,2.45v1.96l2.69.33,2.37-.82.95,1.47,1.58-.82v1.96l1.1.65,3.79-3.6,2.69,2.95,3.48.82,2.37.65,2.21-1.8,3.95-3.1s4.11-4.74,7.59,2.29l2.53-.49,2.37.49,2.05-2.12,1.58-1.63,3.32-.9,3.63.73,3.95-.73,2.53-1.55,1.9-1.31v-4.9l1.42-.66.63,2.29v2.94l1.9.82s2.53-1.14,3.16,1.47c0,0,2.37,1.31,3.32-1.14l1.26-3.11v-2.62l1.58-.66,2.05-2.62h3.16l1.11-2.12,1.26,2.62v2.45l2.05,1.96,1.58.98,4.9.16,2.21.82,2.85,1.79,2.68,2.37,1.27,3.35v1.8l-2.06-.16-1.42.33.32,2.45,3.16-.98,3.16-1.14,2.96.14-1.66,5.76,2.01,3.33,2.53,3.76.47,3.11,1.58,1.31,2.53-.98,3.79,4.08-2.7.9-1.01,3.24-.96,5.9,4.68,9.34,2.58,5.15,2.64,3.22Z"/>
  <polygon id="mamonovo" class="cls-9" points="46.37 351.21 47.59 347.86 49.41 345.66 51.62 342.79 53.67 340.83 56.99 338.87 60.54 337.24 64.81 336.09 68.6 334.5 73.26 330.94 75.55 329.06 78.76 330.53 79.95 331.18 83.22 330.57 87.54 329.46 90.36 328.32 91.82 327.25 94.33 324.8 96.21 330.77 97.53 334.5 99.54 336.74 101.75 335.92 103.81 338.7 107.91 342.46 106.48 346.46 107.76 349.98 110.24 354.06 111.39 358.48 109.25 361.72 46.37 351.21"/>
  <g id="baltiysk">
    <path class="cls-9" d="M66.37,280.26s.24,3.19-1.34,4.57l-3.63,2.29-2.05,1.47-1.58,2.29-1.11.98-1.58,2.12-2.53,4.66-1.9,3.6-1.03,2.37-2.29,1.96-2.45,1.74s-3,1.2-3.95,3.66l-5.93,10.3s-1.97,4.41-4.74,9.23l-4.03,4.09-4.98,4c-1.71,1.72-3.42,3.43-5.13,5.15-2.29-.14-4.87-.58-5.29-1.94-.62-2,4.06-3.96,8.85-8.5,8.97-8.51,12.18-19.02,16.43-23.54,2.52-2.69,3.63-2.76,6.32-5.89.82-.95,1.31-1.63,1.71-2.25.78-1.2,1.21-2.14,3.03-4.29.52-.61.86-.98,1.27-1.4.72-.73,1.66-1.62,4.1-4.16,2.65-2.76,3.99-4.16,4.74-5.23,1.1-1.56,2.55-4.09,3.48-7.85,0,0,7.11-13.59,5.61.55Z"/>
    <path class="cls-9" d="M119.4,218.81h-.79l-2.45,1.31-2.37,1.15-3.32,3.19-2.06,2.78-1.18,1.63h-.55l-.39.63.31,2.96h1.19l-.71.98h-1.9l-1.34.57h-3.79v.82l-.15,1.11-.76.68-.8.17h-.42l-.06.13-.51.14.02.87-3.87.41-4.03,2.7-3.35,3.27-2.34,2.12-1.98,2.45-1.1,2.54-.4,3.43.4,2.7.71,1.31.39,2.54-1.1,1.63-.63,2.95.63,1.96,1.58,1.8.95,1.7v1.81l-2.13.58h-3.32l-1.98-.58-1.58-.62-1.66,1.2h-1.34v-1.2l.77-1.2v-1.21l-.93-.43-1.34,1.64-.87,1.2h-.79l-1.58-1.2-1.1-1.45.31-1.63,1.9-1.39,1.58-2.94,1.98-3.27,1.74-4.25,1.26-5.15,2.06-6.13c4.26-6.45,6.79-19.62,6.79-19.62l1.42-7.52,1.58.08,2.22-.38h.07s.56-.11.56-.11c.02-.07.05-.13.07-.2l.42-.19s.65-3.41,3.91-2.57c.76.25,1.29.67,1.29.67.06.08.21.08.41.04.43-.09,1.12-.42,1.78-.77.79-.42,1.54-.88,1.77-1.03.05-.03.08-.04.08-.04.02-.03.04-.05.06-.08.15-.17.54-.62,1.06-1.12,1.43-1.23,3.07-1.83,3.07-1.83l2.53-2.36,2.13-.83,1.66.65v-.13c0-.56.04-2.68.65-2.45,0,0,0,0,.01,0,.49.3,1.07,1.77,1.07,1.77l.02.04,1.08,1.91,2.05,1.41,1.03,1.31,1.74,1.47,1.58.98,1.11,4.49Z"/>
  </g>
  <path id="svetly" class="cls-9" d="M171.46,247.33c.73,8.78-.83,7.88-8.69,5.89-1.24.65-3.77.99-5.15.82-4.48-3.08-2.24,1.58-6.77.08-4.15-3.06-5.25.74-8.06-.65-12.33-7.08-22.52,14.7-28.4,13.73-4.31-.08-8.1-12.99-8.1-12.99.8-1.03,2.27-3.1,3-4.17,1.46-1.65,1.49-2.1,2.61.08,3.27-.08,2.34-2.98,3.56,2.12,6.53,1.41,1.95-2.37,5.29-3.27,4.05-.97.98.98,4.11,1.14,1.45-.02,4.86.03,6.24-.08.7.62,2.14,1.14,3.08,1.06,2.74-.83,6.34.46,5.85-3.76-4.31-3.37-1.88-.97-5.4-1.06-1.75-.51.07-1.44.5-2.21,1.47.35,3.62-.77,3.74-2.37-2.5-.53-5.87-2.37-8.48-2.7.18-1.71-.19-3.94.08-5.64,3.88-.27,5.22.27,4.15-4.25,0,0-5.34-2.21-5.34-2.21-4.91-7.15,7.13-4.66,8.38-2.37,1.86,6.34,2.1,4.62,7.58,5.56,0,0,2.61.41,2.61.41-.71.81-.56,2.36-1.9,2.29.19,1.2-1.43,2.5-.32,3.43.25,1.95,3.44.37,4.74.41,1.15-.49,6.68.06,5.14-1.88-1.03-1.36-.16-3.44,1.66-3.19-.23-.71-.44-2.2-.48-2.94.5.27,5.11-.63,4.9.74-.03,9.88,1.62,3.83,7.82,6.05-1.48.97-.15,3.21-2.45,1.96-.36.89,0,1.52.87,1.8-.08,1.39-.25,4.24-.32,5.64.09,1.11-1.45,1.71-1.43,2.62.79.14,2.52.31,3.33.25.27-1.01,1.38-.53,2.05-.33Z"/>
  <path id="zelenogradsky" class="cls-9" d="M317.73,18.95c2.78,6.56-2.43,6.44-2.43,6.44-7.42,3.82-2.83,4.77-8.41,8.52-3.7,2.08-3.51,5.2-5.15,7.17-4.59,2.8-5.85,9.74-8.71,13.12,0,0-3.14,4.78-3.14,4.78-2.08,4.6.79,3.58,0,6.62-5.47,8.15-15.64,14.16-21.98,22.25-4.02,4.62-7.6,12.15-11.61,16.79-12.39,8.97-24.83,27.63-35.25,32.18-5.87.43-3.69,6.9-4.86,7.66-2.73,1.46-5.79,2.86-1.54,4.72,3.61-1.84,5.33,3.24,5.33,3.24,1.19.26,3.11,1.81,3.91,2.7,6.59.97,3.17-5.32,9.6-1.28,3.65-.97,8.45.62,11.97,1.59.98,3.39-2.53,4.82-5.39,4.41-.48,2.26,1.53,3.83,2.08,5.88,0,0-1.48.37-1.48.37.29,1.28,1.01,3.78-1.01,4.47-.05,0,.75-1.27,1.62-1.06-4.18,1.64.8,6.15-4.02,6.25-4.35-.81-3.98,3.71-6.69-1.34,3.03-1.15,2.64-1.59,3.12-4.46-4.14,2.01-13.12-2.94-12.05,4.46.95-1.43,1.39-.34,2.23.45-2.28,3.76-5.84-2.51-8.93-1.34-1.28,1.01-2.42,2.67-.89,4.02-1,.06-2.84,1.61-3.57,2.23.34.8-.87,1.77-1.34,2.23l1.7-.08c-3.62,1.82.39.67-3.04,4.09.93.77,1.23,3.36,1.34,4.46-1.7-.03-4.77-.97-6.25-1.79-1.48,1.5-2.59.98-3,3.57-1.1.32-6.17,3.78-6.48,1.61-1.97-4.47-6.3,2.44-3.01,3.74,0,0,2.68.45,2.68.45.83-1.01,4.41-1.62,2.68.45,1.12,1.14.6,3.21,0,4.46l-1.79-1.79c-.17,1.32.8,3.12.89,4.46-4.39.57-.93-3.47-3.12-4.91-2.85.38-3.23,3.89-5.36,5.36,1.2,2.42-1.7,2.45.89,4.91,1.06-2.51,2.95-1.35,4.91-.89,2.65-1.37,2.38-.58,2.79,1.8-2.86-.16-4.81,1.65-1,2.22,0,1.49-1.53,4.52-2.23,5.8-2.73-1.15-7.05-2.81-9.82-.89-1.32.24-2.82-.74-4.02,0-.25,2.1-.18,3.07-2.68,2.68-.61,3.04,1.49,2.28,3.57,2.68-.41.75-1.42,1.47,0,1.78-.57,1.23-.43,1.5.89,1.79-6.47,5.26-.94,4.4-3.57,5.8-1.47-.92-2.99.39-4.02,1.34-1.14-.68-6.83-4.08-7.14-5.36-.68,0-2,0-2.68,0-.73-1.94-4.35-.98-5.8-.89.47,1.91.66,3.03-1.34,4.02-.09.81,1.11,3.06-.45,3.12-2.12.21-6.37.65-8.48.89-.52-1.43-.41-3.46.89-4.46,1.99-3.95-5.08-1.94-7.14-2.68-.86-1.61-2.46-5-3.12-6.69-2.56-.15-7.52-2.46-8.93.45.28,3,4.36,4.79,6.7,5.8.38,4.29-.29,3.63-4.02,4.02-.22,1.61-.11,4.04-.2,5.65,1.63.55,6.86,2.44,8.48,2.7-.34,2.86-4.12,1.72-5.16,4,1,.9,2.64.88,3.32-.41,0,0,3,2.04,3,2.04-.08,1.4-.12,3.42-2.06,3.27-1.62-.05-3.85.68-5.45.33-.62-.57-1.89-1.09-2.73-.85-1.48.08-4.49-.04-5.97-.17,0,0-.62-.67-.62-.67.03-.31.1-.72-.33-.55-2.71.27-3.92.26-3.46,3.39-4.97,1.04-3.36.18-5.02-3.19-1.08,2.01-2.88,1.36-3.52-.57-1.45,1.77-3.95,4.19-4.46,6.28-.83-.26-.18-1.65-.12-2.18,3.56-13.74-12.83-13.59-7.96-15.63,1.51,0,1.85-1.55,1.72-2.78,2.26-.11,6.32.27,7.74-1.55-1.73,1.13-2.02-4.4-.55-3.6,2.78-4.23,6.98-9.1,12.17-10.06-.32-4.83-4.05-6.93-7.51-9.66-1.62-2.36-2.54-6.64-2.84-1.13-4.22-2.22-10.12,6.81-14.13,7.4-6.89-2.82-3.82,3.25-8.41,2.62,0,0-2.12.05-2.12.05,2.68-14.87-7.33-25.64,1.48-24.81,1.36-.12,5.11-.93,3.62-2.64-9.86-7.11,7.58-4.71-2.79-12.81-1.2,2.74-3.44,3-3.37-.25,1.19-.21,3.71-.85,4.74-1.47-.74-.56-.18-2.47-.06-3.19-.36-.93-.74-2.87-.83-3.86-1.94.27-4.9-.62-2.96-2.27,2.73-1.55,1.3-4.75,2.31-7.3-3.97-.87-.02-7.79.71-1.78,1.08-.05,1.37-1.36,2.49-.98,1.68,1.37,3.74-.88,4.86-1.96-.23-1.15-.72-3.5-.95-4.66.22-1.77,1.18-4,.89-5.82,11.85,3.61,3.35,5.04,7.88,8.15,2.07,1.14,4.7,1.37,6.76.36,3.45-1.38,6.77,1.44,9.66,2.95,3.52,2.78,4.7.39,4.91,3,2.49.64,2.09-2.14,5.15-.06,2.57.15,6.12-2.19,7.59,1.16,2.11,2.85,5.03,1.93,6.69-.86-.51-1.63.57-2.49,1.78-3.31,1.85,2.49,4.89.66,2.25-1.78.65-1.43.8-1.57,2.08-.67-.14,2.15,2.01,1.77,3.49,1.96.46-3.69-1.25-8-.42-11.59,28.06,19.41,37.29,3.47,51.67-1.78,32.43-17.37,57.35-53.73,76.66-79.5,7.82-12.06,15.85-25.44,23.11-37.76,6.06-10.08,2.5-14.13,15.17-12.08-.88,1.95-2.1,4.25-1.25,6.44Z"/>
  <path id="yantarny" class="cls-9" d="M89.5,190.64l.54.98-1.9,1.29h-.05s-5.06.7-5.06.7l-.14.02-.13.02-.77.06v-1.98l-1.08-1.47-.95-1.47-.39-2.45-.47-1.96v-3.27l-.48-2.94-.55-2.45-.48-3.27v-2.94l.71-2.2.16-2.37,1.33-2.21.96-2.12.79-1.63.46-.66,1.44.49.49.08h.03s.91.16.91.16l.41-.26h0l.58.49.71.25-.59,2.76.06,2.88s0,0,0,0c-.13.08-2.18,1.43-2.34,2.57-.14.49.04,1.04,1.29,1.29l2.25.06.3,2.08.53,1.78-.42,2.33.48.86-1.78.8-2.96.67s-.3,1.04,0,1.23l1,1.27h0s.83-.17.83-.17l.71-.8.83-1.29.77.74.59.45.71.53,1.48,2.39-.92,1.83-1.46,1.22-1.12.63-.66,1.35,1.25,1.9,2.13,1.78Z"/>
  <g id="svetlogorsk">
    <polygon class="cls-9" points="94.59 154.78 93.31 155.96 92.01 156.91 90.8 157.23 89.73 156.74 88.79 156.68 88.25 157.41 87.25 157.72 86.83 156.49 86.83 155.52 85.94 155.21 84.88 156.07 84.88 157.62 84.83 158.87 83.92 158.87 81.97 158.29 81.97 157.31 82.88 155.66 84.42 153.2 85.84 150.82 87.02 148.67 88.28 147.14 89.75 145.79 91.53 144.75 93.3 144.3 94.54 144.3 94.54 146.69 94.03 147.96 94 148.04 93.64 150.12 94.59 154.78"/>
    <polygon class="cls-9" points="84.88 156.07 85.94 155.21 84.88 156.27 84.88 156.07"/>
    <polygon class="cls-9" points="94.03 147.96 93.64 150.12 94 148.04 94.03 147.96"/>
    <path class="cls-9" d="M146.04,153.94v1.04l-1.08.71-1.72,1.39h0s-.17.14-.17.14l.09,1.38-.44,1.01-1.02,1.35-3.08.86-2.13-1.96-1.37-1.84-2.66.18h-1.25l-1.07.61-1.84-.39-1.6-.71-1.61,1.15-1.35-.11-.29-1.41-1.78.06-2.84-1.65-3.32-1.84-2.84-1.59-2.95.41-.55.08-2.81.77h0l-1.91-.37-2.03-.77-1.64-1.15h-.02s0-.03,0-.03c.05-.18.47-1.67.47-2.19v-.08l.11-1.53v-.05s1.68.26,1.68.26l2.02.55h2.31l1.95-.41,2.67-.41h4.09l2.31.82,2.43.49,4.15.37h2.96l3.08-.55,2.08-.74,1.72-.39,1.48-1.39.37.26.23.95-.42,2.89h1.24l1.48-.37,1.72.06.89.67-.35,1.08-.06.89,2.25,1.1h.89l.83-.49.71.86Z"/>
    <path class="cls-9" d="M101.22,149.21v-.21s.01.08.01.08c0,.51-.42,2-.47,2.19l.46-2.06Z"/>
    <polygon class="cls-9" points="109.17 152.82 109.72 152.74 106.36 153.58 109.17 152.82"/>
    <polygon class="cls-9" points="118.83 155.76 121.67 157.41 112.67 152.33 115.51 153.92 118.83 155.76"/>
    <polygon class="cls-9" points="136.63 146.3 136.85 146.46 136.85 147.25 136.63 146.3"/>
    <polygon class="cls-9" points="136.44 150.14 136.85 147.25 136.85 147.57 136.61 149.1 136.44 150.14"/>
    <polygon class="cls-9" points="143.06 157.23 143.23 157.09 143.15 158.61 143.06 157.23"/>
    <polygon class="cls-9" points="143.61 153.57 141.35 152.47 142.66 153.08 143.61 153.57"/>
  </g>
  <path id="pionersky" class="cls-9" d="M152.77,152.89v2.18h-1.45l-1.55-.15-.34-.98h0s-.15-.69-.15-.69l-1.3-.74-.77,1.41.83.98.36,1.47-1.6.8-.89-.74-.95-.74,1.08-.71v-1.04l-.71-.86-.83.49h-.89l-2.25-1.1.06-.89.35-1.08-.89-.67-1.72-.06-1.48.37h-1.24l.42-2.89-.29-1.21.95-.23,1.25-.58,1.04-.62s.44-.49.53-.52c.09-.03,1.66.03,1.78,0,.12-.03,1.89.49,1.89.49l.21.34,1.45.14h.83l1.78-.14,1.39-.34,1.33-.5,1.04-.33h.31l-.27,1.72-.12.79.3,1.36.1.46.12.76.25,2.46v.04l.06,1.55Z"/>
  <path id="ladushkin" class="cls-9" d="M146.31,295.38v4.24l-.6,1.66-.48,2.38-.31,2.19-.34,2.44-1.58-.33-1.55-1.28-2.4-1.17h-3.32l-1.42,3.77-3.08,1.21-2.62-1.21,2.37-1.48-2.21-1.31-1.79-.62-1.06-.12-2.3.38-2.12.35-.42-.69-.37-.62-3.53,1.66-.29.13-1.14-2.87.39-.45,1.6-.98,1.12-.74,1.78-.67,1.36-1.84,1.18-1.59,2.44-2.27.83-1.23,1-1.53,1.3-1.29,2.2-1.16,2.37-1.16,2.25-1.23,1.84-.61,1.45-.92,1.39-.37v1.16l-.77,1.04.42.86,1.01.25.89-.06.95-.37s.48.43.36.74c-.12.3-.42,2.02-.42,2.02l.35,1.33.08.32s.87.61,1.05.67c.18.06,1.66.83,1.66.83l.48.51Z"/>
  <path id="gurevsky" class="cls-8" d="M308.25,212.17v2.62l-1.34.9v1.31h-3.24l-1.18.74.63,1.55.39,2.12-.47,1.55.87,1.39,1.1,1.47.87,1.71-.71,1.39-1.11-.41-1.03.74-1.11.25-1.34-.49-1.42.16-.87.25-1.34-.16-.4-1.31v-1.31l-.71-.33-1.34-.66-.16-1.31-.63-.57-.16-.82.16-.98.47-1.06.63-.57,1.03-.98-1.18-.49h-.79l-1.11.41h-.95l-.47.98.24,1.23.71,1.06-.55.66-.79.41-1.03-.41h-1.11l.47,1.47.16,1.64-.95.65-1.5.49-1.27.82.32,1.88,1.9.33.87,2.54-1.19,1.39-.55,2.04,1.42,1.55.79,1.72-1.34,1.31,1.82,1.47.24,1.39-1.58.65-.79,1.31,1.19,1.88h2.29l.16,1.64h1.42l1.98,1.06-1.03,1.96-.63,2.22-1.42.81.95,1.14-.32,1.63,1.42,1.96-.87,1.39v2.37l-2.37.82h-2.21l-1.42.74-1.27.57.4,1.47-1.11.74h-1.26l-2.13-.33-1.11-.9-1.58-.25v1.8s-.95,0-1.18-.08c-.24-.08-.95-.82-.95-.82l-1.18-.16-1.9.65-.63-.65-.79-1.06h-.79l-.87.41-.4,1.47-2.29.17s-1.98-.66-2.05-.74c-.08-.08-1.34,0-1.34,0l-2.06.57.64,1.06-1.19,1.47,1.98,1.06-.79,1.39-1.66.74-.95-.17-1.74.49-.63-.49-1.74-.08-.87-.74-1.5-.33-.63-.82h-1.03l.39,1.8-.39,1.47.39,2.04-.55,1.72.55,2.04v1.55l-.55,1.24v5.47l-.48.9.48,2.63-1.02-.38-2.69-.49-3.4-.11-1.58-.98-2.05-1.96v-2.45l-1.26-2.62-1.11,2.12-3.29.17-1.92,2.44-1.58.66v2.62l-1.26,3.11c-.94,2.31-3.32,1.14-3.32,1.14-.55-2.77-3.16-1.47-3.16-1.47l-1.9-.82v-2.94l-.63-2.29-1.42.66v4.9l-4.42,2.86-3.95.73-3.63-.73-3.75,1.34-3.2,3.31-2.37-.49-2.53.49c-3.79-7.18-7.59-2.29-7.59-2.29l-6.16,4.9-5.85-1.47-2.69-2.95-3.79,3.6-.56-.33-.54-.99.54-.98-.54-.32-1.58.82-1.24-1.37-1.66.58h-1.6l-1.5-.18v-1.96l-.53-1.65-.58-.8h-1.34l-1.04-.41-.98-.66-.98.42h-1.02v-.83l-.29-.37-1.53,1.04h-7.19l-.48-.51-1.22-.32-1.49-1.18-.08-.32-.13-.5.2-1.26v-1.59c.12-.31-.36-.74-.36-.74l-.34.13h-.01s-1.48.29-1.48.29l-1.01-.25-.42-.86.77-1.04v-1.16l3.52-1.16,2.53-1.59,2.5-.61,4.68-3.31,4.12-3.55,3.52-3.13,2.31-2.7,1.54-2.39,1.66-2.02c.1-.04.19-.09.29-.13,3.99-1.83,1.61.87,1.61.87-3.02,6.8,6.69,1.53,6.69,1.53l2.43-2.02,2.43-2.33,2.2-2.15,2.61-1.1,2.25-1.74.24-.44.83-1.56h1.66l.53,1.47.95,1.1,1.18,2.39-.59,2.15,1.07.25,2.2,1.29,2.31.37,4.03.37,2.43,1.04,1.9.25,2.67,1.04,3.61.61,2.85-.18s1.6,1.04,1.89,1.1c.3.06.42-.92.42-.92l2.13.25.95-.8,1.95.8,2.07-.74.12-1.59.77-1.53,1.3-1.47s1.48.67,1.48.86,1.66,1.35,1.66,1.35l2.13,1.47,2.08-.43.59-1.9-.06-1.59,1.72-.98,1.84-.12-.65-1.72,1.24-.37h2.73c.18,0,1.25-1.23,1.25-1.41s-.71-1.41-.71-1.41l-1.01-.67h-1.48l-1.95.06-1.9.12-1.78.43-1.72.19-1.19-.37-.35-1.71.39-2.96v-1.96l1.66-.57,1.26-1.39-1.42.08-1.74-.49-.63-1.63.16-1.78-.4-1.08.87-1.14-.39-1.39-1.11-.58-.16-.9v-1.14l-.87-.25-.79,1.79-1.58-.82-1.91-.73-1.33-1.31-1.11-2.04-.16-2.21.95-.98,1.11-1.06-.63-.9,1.18-1.06-1.33-1.71-.99-2.21s-.5-1.33-.55-1.39c-.06-.06-.75-.53-.75-.53l-.5.12-.61-.02-.69-.82-.33-.1-.32.43.63,1.14-.32.98-.95.08-.63-.98-1.19.17s-1.34-.25-1.58-.25-.79-.49-.79-.49c0,0-.71-1.39-.87-1.63-.16-.25-1.27-.98-1.27-.98l-1.34.66-1.34.98-1.42.82-.87-.82-1.34-2.62-1.34-.9-1.66-.17-1.74.25-2.13-.16-1.42-.17-1.66.17-1.48-.75.33-1.08.71-1.84v-.98l-1.32-.22c-2.88-.52-.43-1.52-.43-1.52l3.16-.71-.65-1.35-.47-1.54h-.91l-.47.58-.71.68-.95.07-.74-.34-.91-.42-1.29.2-.78.97-.73.66-.37-.54-.35-1.23.11-.9.49-1.01-.55-1.29,1.12-.96,1.19-1.19.46.4.29-1.53-.13-1.07.09-.5,1.18-.2,1.84-.59.59,2.14-.65.86.18,1.47,1.12.62,1.25.12-.06-1.35-.77-1.16-.3-1.29.24-.8.95.61.71.98.89-1.04v-1.66l-.77-1.53.77-1.41-.68-.14-1.16-.23-1.34,1.09-3.1-.17-1.18-.92.42-1.53.65-2.08h.59l.97-.81.87.26,1.07,1.78,1.42.12,5.33-2.33-.24-1.1.65-1.16,1.3-.31.95-.92,2.13.86,1.12.61,2.9.37v-1.47l-.42-1.72-.83-1.53,1.66-1.9-.35-.92,1.48-1.23h-1.3l.95-1.16v-.92l2.49-1.35,1.35-1.24-.94-1.09.12-1.04.59-1.16,1.3-.61h1.95l.83,1.1,2.13,1.22,2.08.62,1.01-.06.47-2.39-1.07-.12-1.18.92-.18-2.08,1.2-1.96,11,.16v1.19l-.82,1.92-2.14.47.12,1.59,1.42,1.48.71-1.35,1.72.12.83-.37,2.49.06,2.19-.74v-1.47l-.33-2.82-.02-.18,1.54-1.22-.53-3.25,1.48-.37-1.01-2.51-.83-.61-.24-2.76h2.69l2.64-1.54.15-2.28.84-.89,3,.17,3.79,1.84,4.11-.7s5.69-1.63,6.16-1.96c.48-.33,2.06-1.47,2.06-1.47l3.63-2.58h3.32l4.11,1.92,4.42,1.8,1.58,2.99,1.42,4.04,1.58,2.94,3.63,3.27,3.55,1.71.55.25,1.54,1.88s0,.02-.03.05c-.18.32-1.17,2.01-1.39,2.12-.24.12.63.94.63.94l1.46,1.92.83,1.14.71,2-.59,1.71.32,2.62.67,2.04.12,1.18-.71.12s-.79-.37-.91-.45c-.12-.08-.87-.57-.87-.57l-1.07-.29-.4.65.83.7-.12,1.23-.24,2.29.44.82-.04,1.1.51,1.1v1.51l.55,1.31-.44,1.06.55,1.06.59,1.23-.32,1.88,1.15,1.67.99,1.15,1.34.04,3.38-.37,2.29.98.95,1.14.55,1.65.55,1.62.71,1.14.39,1.39Z"/>
  <path id="kaliningrad" class="cls-8" d="M171.46,247.34v6.35l1.74.91,1.34-1.4,2.92-.25,1.4.12.85,1.52s.59.56,0,1.23-1.42,2.17-1.42,2.17l1.18.53s1.3.06,1.66,0,1.9-.53,1.9-.53l1.3-.96s.95-1.02,1.3-1.2,2.57.69,2.57.69h1.66l.53,1.47,1.28,1.77.72,2.23v1.75l1.6.72,2.08.85,2.37.31,2.02.18,1.9.45,1.6.69,1.9.25,1.51.59,2.24.64,2.53.43,2.05-.13,1.31.28,1.38.78.41-.92,1.76.92,1.32-1.47,1.96.8,1.53-.54.54-.19.37-2.09.96-1.53.87-.98,1.48.86,1.66,1.35,2.13,1.47,2.07-.43.44-1.41.09-2.08.83-.47,1.4-.54,1.32-.09-.65-1.72.65-.53h1.52l1.8.16.84-.82v-1.46l-1.01-1.02h-1.51l-2.01.19-1.9-.19-1.06.19-2.65.41-1.18-.37-.23-2.67.27-2.01v-1.96l.89-.31,1.42-.98.62-.68-.89.05-1.63-.28-1.47-1.1.31-1.94-.35-1.63.87-1.14-.95-1.68-.71-1.19v-1.14l-.87-.25-.79,1.8-1.58-.82-2.61-1.43-1.31-1.87-.51-1.88-.08-1.11,1.32-1.34.1-1.61,1.18-1.06-1.33-1.71-.99-2.21-1.3-1.92h-2.23l.1,1.74-1.34-.53-1.27-1.21-1.74.76-1.7-.76-.37-1.74-.86-.61-2.69,1.63-1.76.51-.97-1.35-1.28-2.02-1.79-.73-2.58.16-3.55-.33-1.66.16-1.51-.67-1.18,1.96-1.18-.31-2.42-1.06-2.12-.53-2.4-.06-1.64,1.01-2.15.03-.77-.67-1.3.55-.3,2.39-2.55.43-.14,1.83,2.66.59,1.15.09-1.07,1.35,1.01.25-.47,1.23,1.78.25-1.18,1.41-2.16,1.8-.54.81,1.17,1.54-1.08.82-2.24-.25-1.6,1.59-1.72-1.47-1.36-.67-2.07-1.04-1.68-.93-.69-1.28-.59-.31-.59.55-1.72-.49-.28,1.01.12,2.23.25,1.97,2.13.9.16-.9h1.81l2.25.31,1.08.26-.79.9-.24,1.55-1.42-.49-.16,1.23,1.03.57-.13,2.13-.15,2.71-.36,1.95-1.11.98v.49l1.2.16,1.66.08,1.02-.74.93.25.57.15Z"/>
  <path id="gvardeisky" class="cls-9" d="M308.25,206.57l-2.21-.2.55,1.65,1.66,4.15v1.31l-1.34,2.21v1.31h-1.42l-2.37.35v2.8l-.07,2.82,2.26,3.42-.13,2.54-1.11-.41-2.13.98-1.34-.49-1.42.16-2.17.33-.43-1.55-.71-1.63-1.34-.65-.16-1.31-.79-1.39.63-2.04,1.66-1.55-1.18-.49-1.9.41h-.95l-.47.98.95,2.29-.55.65h-2.92l.58,2.53-.89,1.23-2.76,1.31.32,1.88,1.9.33.29.86.58,1.68-1.18,1.39-.55,2.04,1.42,1.55.02,2.47,1.25,2.02.24,1.39-1.58.65-.79,1.31,1.18,1.88h1.54l.84.89.07.75,2.35.5,1.05.56-1.03,1.96-.63,2.22-1.42.81.95,1.14-.32,1.63,1.42,1.96-.87,1.39v2.37l-2.37.82h-2.21l-2.45,1.2.16,1.58-1.11.74-2.67-.22-1.83-1.01-1.58-.25v1.8l-1.18-.08-.95-.82-2.13.16-1.58-.33-.79-1.06-1.66.41-.39,1.47-1.62.25-2.73-.82-2.76.39v1.24l-1.19,1.47,1.97,1.06-.79,1.39-1.66.74h-1.53l-1.16.33-1.39-.53-.98-.05-.87-.74-1.5-.33v-.78l-1.66-.04.39,1.8-.39,2.17.28,1.72-.28,1.93.39,1.46v1.55l-.39,2.66-.15,2.45-.48,2.49-.54,2.25,3.16,1.73,2.82,2.31,1.36,2.6.47,3.05-2.05-.16-1.33,1.03.23,1.75,3.16-.98,2.43-.88,2.89-.16,1.16-1,.79.9,2.37-1.1,2.21-1.93,2.58-1.34,5.16-1.27h5.37l2.34,7.27,2.36.89,8.84-.74,61.66-5.14,3.87,16.79,1.03,2.01,2.37,1.8,1.42-3.6,1.38,1.5-.11-1.99,3.32-.16s2.22,9.37,5.12-.28l4.99-.86,9.77-2.7,7.61-2.53,2.95-.53,2.27-1.43,1.74,1.14h2.53l2.64-1.11-1.58-3.05-.79-1.52.32-3.43-2.05-2.32,2.05-6.51-3.32-2.29-1.42-.33-.63-2.78-2.53-1.26-3-1.85,1.9-2.12-2.53-1.63-1.9-.98,1.58-1.14,2.53-1.96,2.69-1.31-1.26-1.8-.47-1.21,12.64-16.77,2.37-1.8h2.21l2.05-.16.79-1.31.95.33,3.48-.49-1.11-2.12,1.11-1.47-1.42-1.47,1.42-.82v-3.6l1.58-2.94,5.21-6.37-2.21-1.8-1.74-.82-1.26,1.8-1.74-.82-1.11,1.47-1.42.16-.95,2.29-3-.33-1.26,1.31-1.58-.65-2.84.98-2.21,2.29-3,1.63-2.21-1.31-2.21-.82-.32-1.47-3.48,1.96-1.74.33-.79,2.94-1.11,3.27.79,2.62-2.84,1.31.79,2.29.95.33-1.26,2.62-2.69.65-.16,2.62-2.21-1.01-.63.68-3.16-.68-1.26-1.44-1.74.16-2.41,1.28-2.01,1.99h-2.05l.16-3.27-1.42-2.12-.16-3.92-.63-2.78-1.74.16-2.21-1.8-2.05-.65-.95,2.78-.32,2.45-1.06.98-1.62-.82.16-2.45-1.11-2.29-1.42-1.31-1.74,1.96-.63,1.96-.79,1.31-1.58-1.31h-.79l-.63,1.31-1.42-.49h-1.42l-2.21.33,1.42-2.12-.79-1.96-2.21-.98v-1.14l-2.21.16-1.58.16-.32-2.45-1.11-1.8,1.11-2.12,4.11-4.25,3.63-3.6-2.21-2.29-4.42-3.6v-1.63l-2.53-.33-.47-1.8-4.42-.82-3.63-1.31-2.69.49-3.48-.16-1.58.98-2.37-.98-2.37,1.8-1.9-1.14-2.04,1.31-1.59-2.45-3.32.33-3.32-2.45-2.49-5.07"/>
  <path id="polessky" class="cls-9" d="M463.92,183.45l.47,1.31-3.32,4.57-4.58,5.07-2.37,4.08-2.21,7.89-3.32,5.36-4.11,4.57,4.74,3.27,1.11,2.29-4.27,3.76-2.84,2.62-4.58-2.94-5.93,5.48-3.95-2.62-1.26,1.79-1.74-.82-1.11,1.47-1.42.17-.95,2.29-3-.33-1.26,1.31-2.24-.42-2.97,1.57-2.58,2.1-1.84,1-3.44-1.76-.99-.37-.31-1.47-2.89,1.62-2.33.66-1.58,5.28.47,3.54-2.84,1.31.79,2.29.95.33-.96,1.99-2.99,1.27-.16,2.62-2.21-1.01-.63.68-3.16-.68-1.26-1.44-1.74.17-3.55,2.29-2.22.98-.66-1.05.11-2.21-1.42-2.12-.13-3.17-.66-3.53-1.74.17-1.81-1.47-1.69-.74-1.95.66.06,3.28-.79,1.66-2.04-.44.16-2.45-1.11-2.29-1.42-1.31-1.74,1.96-.93,2.45-2.08-.49h-.79l-.63,1.31-2.84-.49-2.21.33,1.42-2.12-.79-1.96-2.21-.98v-1.15l-2.55.2-1.38-.93-.18-1.4-1.11-1.8,2.29-3.35,4.04-4.13,2.04-2.98-3.92-3.57-2.24-1.82v-1.63l-1.8-.23-.99-1.08-1.81-1.11-2.83-.53-3.63-1.31-3.89.44-2.27-.11-1.58.98-3.08-.44-1.15.87-3.22-.23-1.23.79-1.59-2.45-3.32.33-2.76-2.04-2.18-3.72-.86-2.58-3.16-1.35-2.29-.98-4.14.35-1.95-1.73-.59-2.12-.45-2.09-.55-1.06-.12-2.37v-1.51l-.47-2.2-1.23-1.02,1.03-2.08-.71-1.92,1.46-.37.87.57.91.45.71-.12-.42-2.11-.54-2.57.45-2.88-1.04-2.45-1.57-2.1-1.03-1.46,1.24-1.9.18-.27-1.54-1.88,2.04-2.94,2.84-1.31,3.16,2.78,3,2.78h3.91l2.57-1.14,3.48,1.14h2.84l.65,1.16,1.18,2.11,3.26-2.04,1.67.02c1.58.11,3.84.28,4.14.38.47.17,3.95.17,3.95.17l.21-.43,4.59.06,3.1.7,1.1-.64.87-.5v-3.11l3.09-.33h2.84l3.48-.82,3-2.29.79-2.62h3.95l3.32,1.63,1.08-.4,3.35-1.24s1.39-.79,3.08-2.42c0,0,0,0,0,0,3.6-3.48,8.58-10.8,4.5-22.59l-3.32-6.37.16-1.47-2.06-2.13.48-2.62h3.32c.07,0,.19-.03.34-.07,0,0,0,0,.01,0,.55-.17,1.51-.58,2.09-.84,0,0,0,0,0,0l1.34-.22h3.99l.23-.66v-.03s.89-2.35.89-2.35l.74-1.54h8.38l-.44,2.3-2.72,14.21s1.58,2.44,5.69-2.37h2.37l2.37,1.39,2.05.16-1.26,2.29-1.26,1.63.79,1.31-1.11,1.31.95,2.29-1.11,2.86,1.11,2.37,1.89.66v2.45l3.95,1.31.79,1.8,2.85.98v3.27l1.26,2.12v2.94l1.58,2.29v2.12l3.32.66,2.69,2.62,2.69,2.45,1.74,1.96h1.11v1.96l4.9-1.8,3.47-1.96,2.85.49,2.53,1.96.79-.98v-2.12l-1.74-2.29,1.74-1.47.95.49,1.42-.33,1.42,2.12.95,2.45s1.42.49,1.9.49,2.53-1.47,2.53-1.47h2.85l1.74,1.31,1.74.17,1.74,2.29,3.32,2.78,4.9-2.78,3.63,2.78-1.9,2.78Z"/>
  <path id="chernyahovsky" class="cls-9" d="M450.33,221.86l-7.11,6.37-4.58-2.94-5.92,4.66-4.11,5.84-2.69,4.29v3.6l-1.42.82,1.42,1.47-1.11,1.47,1.82,2.29-4.19.33-.95-.33v1.14l-5.06.33-2.92,2.53-4.06,5.39-8.03,10.65,1.74,3-6.79,4.41,3.86,2.25-1.33,2.49,3,1.85,2.53,1.26.63,2.78,1.42.33,3.32,2.29-2.05,6.51,2.05,2.32-.21,2.26,1.55,4.37.13,1.63-2.06.87.19,2.56,2.29,1.03,1.63-.65,1.9,1.14,1.42,9.81,1.26,2.29.95.65.67-2.75,2.65-.19,1.18,1.02,2.61.62h4.27l.44,2.25,2.41,1.35,2.05-.33,1.15-1.11,2.71-.78,2,1.36.78,1.51h1.42l2.05,1.47h1.42l1.26,1.14.16,1.96,2.25-.98h1.86l1.42,2.45,2.69-1.47,1.28,5.72,2.36,1.23,2.09,1.42,2.73-.11,2.61-1.31v-2.96l2.21-.83,2.67-.02,4.78.59,5.54.22,4.42-.09s4.36,2.65,4.23-9.01l3.77-1.38,2.74-.41,6.29-4.9,1.88,1.03,4.12-2.17-3.63-10.79h1.77l3.19,1.99,1.04,1.39v1.36l-.95,2.12,2.05.49v2.45l1.57,1.63,1.98,1.3,2.77.84,1.86-1.4.94-5.86.86-.11,2.5.99,1.52-1.45,1.32-3.75-3.28-2.04,1.84-3.54,1.45-2.78,3.32.82,4.86,1.56,2.72.73h2.69l2.33,2.99,1.15,2.27,3,.95,2.53-.95,2.4-3.51,1.74-2.45,3-2.4,2.05-5.64v-3.89l-3.48-1.14.79-1.96-3.63-.33-1.42-.82,2.53-.49-1.74-4.41,1.11-2.41-4.11-4.29,3-1.96-1.11-3.6-2.05-1.31,1.9-3.43,1.42-2.29h3l.63-3.27-.79-5.39-1.58-8.99-2.53-9.81s.16-4.58,4.11-1.47l2.37.49.95-2.94,2.37-1.47s-.63-7.19,1.58-7.19l3.63-.16,1.58-2.53h4.42l3.79-1.72h1.42l1.26,1.47,1.11-.16.79.65,1.9-1.96v-2.94l-.63-2.45,1.42-2.45-2.37-1.47-.47-2.62h-3.48l-3-.97-3.79.97-2.37-3.59-3-2.12-2.21.82-1.9-2.94-2.84-2.78-2.05-3.27-3-3.11-3.16-3.31-.79-2.41-4.58-2.12-3.48-1.47-2.84,2.62-3.63,3.39-3.79.86-3.16.33-3.63-.33-2.37-.86-3.16,1.51-1.11-1.51h-2.37l-2.69.86-.32-2.12-2.37-.49-.32-1.63h-2.69l-1.74,2.12-1.74.16-.95,1.1h-2.37l-2.37,4.29-2.05,4.41-2.84,2.94-3.79-.33-2.37,3.11-2.69.98h-2.69l.95,3.27,3.32,3.27,2.69,2.62,2.69,1.14,2.05,1.63-.47,2.94,2.37,1.31.79,2.12-2.21.49-2.84.98-.16,3.11-2.37,1.8-.32,2.29-6.48.16-4.27-.49-2.05.33-1.42,2.78-2.05,2.29-2.37.49-2.05-.82-.63-3.11-1.42-2.73-2.37-.7-1.74,1.47-.63,1.63h-1.9l-.95-2.4-3-5.12-4.9-2.21Z"/>
  <path id="gusevsky" class="cls-9" d="M581.78,208.2l.34,1.87,1.32,1.49,1.18.74-1.42,1.55.63,3.35v2.94l-.63,1.72-2.05-.41-1.11.16-1.26-1.47-2.11.31-2.08,1.41h-5.45l-1.58,2.53-2.61.12s-3.15-1.34-2.6,7.24l-2.37,1.47-.95,2.94-2.37-.49s-4.5-3.19-4.11,1.47l2.11,8.17,1.17,5.9.96,5.62.56,3.82-.53,3.95h-3l-3.32,5.72,1.52.97,1.64,3.94-3,1.96,4.11,4.29-.82,1.79,1.45,5.04-2.53.49.08,1.23,2.37-.32,2.61.23-.79,1.96,3.48,1.14v1.88l-.76,4.11-1.96,4.08-2.34,1.87-3.25,4.65-.9,1.31,1.9,1.77-.86,2.85-.68,3.57.12,7.02v3.4l1.49.45h3.52l3.84-1.43,1.11.98,2.05-1.8,3.05,1.07,2.96,1.05,1.42-.82,2.84.65,1.11.65,1.58-.49.79.98,3.16.33.95,1.96,2.37,1.47,2.69,1.14,1.11.82,2.6-1.21,5.57-1.54,3,.32,2.14,1.25,1.7,2.64,1.74,1.47,2.05-.65v-1.77l2.81.18,3.94.11,4.31-.65,2.84-1.63,1.62.45,1.08-1.98,1.72-1.65,1.1-2.86-1.14-2.75-1.14-1.99,2.28-1.6,3.41-.85.67-2.26-.67-3.43-1.7-.93-1.85-1.47.71-2.7h-1.9l.85-3.94,3.14-1.26,1.42-1.96-1.39-2.5-1.52-3.01-2.26-2.53,1.96-2.27.99-1.47.63-.18h2.69l1.02-.47.69-1.71,1.73-1.75,1.18-1.72h2.33l2.52-.82v-3.01l-1.01-4.37-.16-5.44.11-2.05h-1.42l-.95-2.45h-8.77l-.78-1.18-1.71-1.65,1.94-.69-.03-3.15-.65-4.66,3.13-.68,1.42-1.96-1.18-3.68h1.18l.71-3.43-2.37-2.7h7.11l.47-2.45-1.47-1.9.52-2.03-.97-1.51-2.86.4-2.84,1.47-3-.65-2.84.65-3.48-1.96-4.27-.98-1.42-1.8-4.74-1.14-2.53,1.47-1.74,2.62-1.26-.82-.47-2.29-2.84-2.12-2.05-2.16-.32-5.04-3.6-2.62v-3.92l3.6-2.45,1.9-2.29-2.84-1.47-1.74-2.25.63-2.82-3.32-.98.32-2.29-1.74-4.25h-3.48s-2.05,1.14-2.05,1.63-2.29,2.94-2.29,2.94l-1.82.98-2.05,2.12-1.58,1.71h1.11"/>
  <path id="krasnoznamensky" class="cls-9" d="M748.16,198.81l-1.92,3.62,1.73,2.12s-.08,1.9-.36,2.28c-.27.38-1.99,1.28-2.45,1.19-.46-.08-3.2,0-3.2,0l-.83,1.13,1.59,1.08,1.3,3.36-.76,2.71s-5.8,1.25-6.14,1.33c-.34.08-2.57.5-2.57.5l-2.04,3.59-1.43,1.24-2.83,1.3-3.23.41-.73,1.92-.57,3.56-3.25,2.42-2.49,3-1.88,4.89h-4.06l-2.44-.78-3.46-1.17-3.03-1.05-3.83-.68h-1.45l-1.42,2.2-3.41.24-3.83,1.48h-9.35v-6.13l-2.13-2.7-2.89-.74s-2.56,0-3.32-.06c-.76-.06-2.33-.19-2.33-.19l-3.83-1.71-2.8,2.2-2.52.66-2.9.81-3.12-.25-2.61.98-2.91-.32-1.31-2.05s-.76-2.05-1.91-2.05h-1.42l-2.16,2.45-3.82.43-1.63,1.54-.26,2.9-4.33,1.16-2.19.54-2.87-.32-2.89.09-2.11-1.19-2.45-.78-2.45-.57-1.42-1.79-3.2-.77-1.98-.12-2.1,1.22-1.74,2.62-.66-.43-.94-2.01-1.12-1.4-1.87-1.39-1.08-1.13-1.09-2.76-.21-3.3-1.41-1.03-2.19-1.59v-3.92l2.3-1.57,3.2-3.17-1.31-.68-1.53-.79-1.74-2.25.63-2.82-3.32-.98.32-2.29-1.74-4.25-.79-3.72v-3.43l.95-2.94-.95-2.29h3.99l4.23-.98,1.26-1.96,4.11-.65-.31-2.45.79-2.12-1.42-2.29.47-3.59,1.26-1.96,1.74.98,2.37.98,2.53-.17-.32-3.27,2.69-2.94.47-3.43,2.21-3.27.95-1.96-3.16-2.45-5.69-3.92-2.21.33-3,.33-2.21-2.62-2.37,1.64-1.74-.33-1.11-.33-1.58-1.96-1.11-3.6-2.84-4.58,1.9-1.63,2.05-2.29-.79-2.62-2.05-1.96,1.1-3.27,1.11-4.25,2.21-2.94-.16-4.25-4.26-1.47v-3.11l5.69-3.11,4.42-4.9,3.24-2.19,8.13-1.25,6.59,1.31,7.36,1.08,5.22,1.35,5.79-.96,6.48,1.31,3.26,3.27,7.64-1.42,5.22-4.62,5.37-3.76,5.53-2.45h6.63c.48,0,3.08,3.43,3.08,3.43v7.54l2.66,6.73,2.49,5.02,3.65,2.97-.3,2.56-2.42,4.43,2.68.84,1.27,5.72,2.92,1.9,1.66-2.45-.71-2.82,1.07-1.72,3.62.75,2.18,4.04,2.55.86,3.85-.86,2.39,3.68s.33,4.53.02,4.9c-.31.37,2.66,1.37,2.66,1.37l3.26,3.37,1.44,2.99-.42,3.37-.71,2.19.85,1.65s1.49.25,1.76.09c.28-.16.73-1.07.73-1.07,0,0,.12-3.31.24-3.92.12-.62,1.89-.74,1.89-.74,0,0,2.02.49,2.37.61.36.12,1.54,2.58,1.54,2.58l-.83,3.37,1.06,3.11h2.24l3.24-1.6,1.24.54s2.59,2.66,3.13,3.03c.54.38,2.12.86,2.12.86l-.54,4.17v6.01l-.65,3.19,2.42,1.7,2.11,1.83,1.75,1.25-1.42,4.17h2.61s1.08,3.55,1.21,3.86c.1.26.62,2.35.79,3.03.04.13.05.21.05.21v4.33Z"/>
  <polygon id="sovetsky" class="cls-9" points="506.12 83.64 503.91 84.1 502.37 85.7 501.69 87.29 501.3 89.84 501.45 91.62 501.7 93.09 503.47 94.6 504.39 96.46 505.03 99.2 505.83 101.91 506.69 104.19 507.91 105.65 509.44 107.48 511.92 108.7 513.51 109.34 515.38 109.62 516.39 109.77 517.89 108.58 519.94 107.76 522.4 107.15 523.28 108.19 524.71 108.64 526.41 108.62 527.77 108.3 528.4 106.5 530.67 106.09 532.51 105.76 532.82 103.23 534.74 102.57 535.19 100.7 535.78 99.04 536.84 98.21 534.96 96.7 530.53 96.7 526.86 95.74 522.28 93.6 519.95 91.62 517.81 90.81 515.6 89.58 512.36 87.95 510.63 86.47 508.73 84.68 506.12 83.64"/>
  <path id="nemansky" class="cls-8" d="M619.03,158.85c-.4.62-.74,1.28-1.18,1.87-.96,1.29-1.5,2.72-1.81,4.38-.2,1.12-1.02,2.22-1.8,3.09-.89.98-1.19,1.96-.86,3.25.07.28.05.58.07.94-2.39.56-4.23-.95-6.17-1.88-2.2,2.48-2.57,5.4-1.16,8.32.14.3.18.72.13,1.06-.17,1.13-.41,2.25-.65,3.54-.54.11-1.26.19-1.96.4-.65.2-1.56.36-1.86.87-1.23,2.11-3.23,1.86-5.03,2.15-1.48.24-3,.18-4.67.27.17.47.32.87.46,1.28.36,1.11.3,2.18.15,3.38-.26,2.15-.06,4.37-.03,6.56,0,.4.12.79.19,1.24-.83.1-1.56.21-2.28.25-1.44.08-2.34,1.02-3.25,2.1-1,1.18-2.17,2.19-3.26,3.27-1.11,1.1-2.28,2.14-3.32,3.31-.6.67-1.24.91-1.96.57-1.75-.82-3.49-.6-5.21-.06-.71.22-1.08.05-1.41-.59-1.04-2.05-2.7-3.4-4.48-4.63-.48-.33-.8-.48-1.28.08-.57.65-1.14.53-1.74-.2-3.62-4.43-6.76-9.33-11.04-13.14-.9-.8-1.29-2.23-1.99-3.32-.35-.54-.76-1.16-1.28-1.43-2.21-1.09-4.48-2.04-6.71-3.1-.73-.35-1.24-.31-1.85.3-1.41,1.42-2.85,2.84-4.38,4.12-2.46,2.05-5.2,3.23-8.38,2.64-1.86-.35-3.7-.76-5.56-1.08-.39-.06-.84.05-1.22.2-.72.28-1.42.65-2.2,1.03-.98-1.9-3.5-1.58-6-.83.08-1.46-.65-2.04-1.91-2.15-.35-.03-.78-.44-.98-.8-.5-.89-1.24-1.12-2.1-1.32-.74-.17-1.21.02-1.71.61-.79.93-1.77.82-2.13-.38-.38-1.23-.47-2.57-.58-3.87-.11-1.28.06-2.61-.17-3.85-.15-.8-.83-1.48-1.34-2.34.9-1.26,1.96-2.73,3.12-4.35-.59-.51-1.14-.99-1.7-1.47-.85-.75-1.87-1.36-2.52-2.28-.78-1.12-1.71-1.64-2.91-1.65-1.04-.01-1.74-.54-2.51-1.24-1.56-1.42-3.29-2.62-4.96-3.9-.12-.09-.3-.16-.44-.13-2.64.42-3.99-1.74-5.47-3.4-1.42-1.58-2.57-3.45-3.75-5.25-.4-.61-.51-1.44-.73-2.09,3.23-.56,6.33-1.09,9.43-1.62,0-.12.02-.24.03-.36-.51-.42-.99-.92-1.55-1.26-1.26-.75-1.82-1.8-1.58-3.36.08-.53.01-1.08.01-1.76,1.67-.08,2.86-1,3.91-2.27.19-.23.72-.17,1.1-.16,1.69.02,3.06-.35,3.73-2.37.47-1.4,1.28-2.66,1.98-4.09-.93-.64-1.87-1.22-2.74-1.88-1.9-1.44-1.88-2.27-.33-4.34,1.4-1.88,3.25-2.04,5.29-1.96,3.1.12,3.05.02,3.92-3.14.47-1.67,1.1-3.3,1.77-4.89.55-1.3,1.66-1.43,2.61-.45.84.86,1.71,1.7,2.69,2.66,1.06-1.16,2.65-1.96,2.33-4.27-.19-1.43-.03-2.91-.03-4.42.87.14,1.63.33,2.39.36.38.02.78-.21,1.15-.38,1.47-.66,2.93-1.37,4.43-1.99.28-.11.8.03,1.04.26,1.7,1.63,3.59,1.06,5.47.61.17-.04.39-.33.42-.54.24-1.44,1.25-1.56,2.31-1.65.42-.04.83-.2,1.25-.23.87-.06,1.36-.42,1.3-1.46-.05-1.06.42-1.68,1.43-1.85.89-.14,1.3-.67,1.23-1.73-.04-.63.19-1.31.41-1.93.11-.31.46-.73.72-.75,2.19-.14,3.22-2.06,4.43-3.53,1.55-1.89,1.41-2.02,3.69-3.23.07.03.16.04.21.1,1.22,1.55,2.51,1.59,4.1.53,1.34-.91,3.56-.2,5.04,1.34.56.58,1.06,1.23,1.65,1.78.99.92.89,2.05.6,3.21-.38,1.46-1.17,2.51-2.51,3.2-2.07,1.08-2.09,1.2-1.48,3.5,1.33,5.11,4.09,9.09,8.73,11,3.1,1.27,6.37,1.52,9.76.58,2.19-.61,4.06-1.71,5.37-3.41,1.06-1.37,1.38-3.46,1.89-5.27.25-.89.16-1.89.24-2.99h1.34c3.29,0,6.58-.09,9.87.03,2.22.08,4.32-.2,6.27-1.37,2.25-1.35,4.65-.77,7.37-.89-2.17,2.38-3.85,4.77-6.4,6.15-.72.39-1.46.78-2.16,1.22-1.85,1.16-2.34,2.26-1.95,4.51.05.31.42.66.71.78.94.39,1.93.62,2.85,1.05.33.15.66.64.72,1.03.29,1.87-.16,3.53-1.34,4.98-.44.54-.73,1.27-.95,1.96-.65,2.06-1.21,4.14-1.85,6.2-.2.65-.12,1.07.38,1.51.86.75,1.73,1.49,2.01,2.8.15.72.07,1.19-.41,1.66-1.12,1.09-2.21,2.21-3.38,3.39.61,1,1.28,2.01,1.85,3.09.66,1.27,1.44,2.54,1.77,3.92.95,3.94,4.49,5.78,7.57,3.55.09-.06.21-.09.31-.13,1.54,2.65,3.78,2.25,6.12,1.84.71-.13,1.63.08,2.25.49,2.27,1.51,4.44,3.2,6.67,4.78.63.44.74.87.33,1.52Z"/>
  <g id="_блок_текста" data-name="блок текста">
    <path class="cls-3" d="M12.05,16.55v-7.69h1.4v6.4h2.85v-6.4h1.4v6.4h.86v3.02h-1.29v-1.73h-5.22Z"/>
    <path class="cls-3" d="M19.3,11.56h1.32v3.08l2.16-3.08h1.32v4.99h-1.32v-3.08l-2.16,3.08h-1.32v-4.99Z"/>
    <path class="cls-3" d="M27.78,19.22v-2.6h-.11c-.66,0-1.21-.17-1.64-.5-.62-.46-.93-1.15-.93-2.07s.31-1.6.93-2.07c.43-.32.98-.48,1.64-.48h.11v-2.63h1.32v2.63h.11c.66,0,1.21.16,1.64.48.62.48.93,1.17.93,2.07s-.31,1.61-.93,2.07c-.43.33-.98.5-1.64.5h-.11v2.6h-1.32ZM27.78,15.37v-2.64c-.32-.02-.6.06-.83.23-.32.24-.49.6-.49,1.08s.16.86.47,1.08c.22.16.5.24.84.24ZM29.1,12.73v2.64c.35,0,.63-.08.84-.24.32-.22.47-.58.47-1.08s-.16-.85-.49-1.08c-.23-.17-.51-.25-.83-.23Z"/>
    <path class="cls-3" d="M34.1,15.9v3.32h-1.32v-7.66h1.32v.65c.36-.54.87-.81,1.52-.81s1.24.25,1.66.75c.42.5.64,1.13.64,1.9s-.22,1.4-.65,1.91c-.44.5-.99.75-1.68.75-.63,0-1.12-.27-1.49-.81ZM36.2,13.04c-.24-.27-.55-.4-.93-.4s-.68.13-.93.4c-.24.27-.37.6-.37,1s.12.74.37,1.01c.24.27.55.41.93.41s.68-.14.93-.41c.24-.27.37-.61.37-1.01s-.12-.73-.37-1Z"/>
    <path class="cls-3" d="M42.52,12.2v-.65h1.32v4.99h-1.32v-.65c-.35.54-.83.81-1.44.81-.71,0-1.28-.26-1.72-.77s-.66-1.14-.66-1.89.22-1.38.65-1.89c.43-.51.99-.76,1.67-.76s1.18.27,1.5.81ZM42.28,13.04c-.24-.27-.55-.4-.93-.4s-.68.13-.93.4c-.24.27-.37.6-.37,1s.12.74.37,1.01c.24.27.55.41.93.41s.68-.14.93-.41c.24-.27.37-.61.37-1.01s-.12-.73-.37-1Z"/>
    <path class="cls-3" d="M44.59,16.55l.85-5.13h.97l1.28,3.01,1.28-3.01h.97l.85,5.13h-1.32l-.39-2.71-1.21,2.81h-.39l-1.21-2.81-.39,2.71h-1.32Z"/>
    <path class="cls-3" d="M51.56,11.56h1.32v3.08l2.16-3.08h1.32v4.99h-1.32v-3.08l-2.16,3.08h-1.32v-4.99Z"/>
    <path class="cls-3" d="M62.55,11.4c.78,0,1.41.23,1.89.7.52.51.79,1.16.79,1.96s-.26,1.44-.79,1.95c-.47.47-1.1.7-1.89.7s-1.41-.23-1.89-.7c-.53-.51-.79-1.16-.79-1.95s.26-1.45.79-1.96c.47-.47,1.1-.7,1.89-.7ZM61.62,15.05c.25.28.56.42.94.42s.69-.14.94-.42c.25-.28.38-.61.38-.99s-.13-.73-.38-1c-.25-.28-.56-.42-.94-.42s-.69.14-.94.42c-.25.28-.38.61-.38,1s.13.71.38.99Z"/>
    <path class="cls-3" d="M69.98,8.25h1.21c-.14.91-.65,1.51-1.53,1.8-.16.05-.36.11-.61.18-.25.07-.43.12-.54.15-.12.03-.25.1-.39.2-.15.1-.28.22-.39.37-.23.31-.36.69-.4,1.13h.02c.17-.23.4-.4.7-.51.3-.11.61-.17.94-.17.72,0,1.3.23,1.75.7.48.49.72,1.14.72,1.94s-.26,1.46-.79,1.97c-.48.47-1.1.7-1.86.7s-1.41-.22-1.87-.66c-.56-.54-.84-1.38-.84-2.52,0-1.54.24-2.67.71-3.37.19-.28.42-.5.7-.69.28-.18.51-.3.69-.36s.42-.12.71-.18c.35-.08.6-.17.75-.27s.26-.24.32-.42ZM67.82,15.06c.25.27.56.4.94.4s.7-.13.94-.4c.25-.27.37-.6.37-1s-.12-.75-.37-1.01c-.24-.27-.56-.4-.95-.4s-.71.13-.95.4c-.24.27-.37.61-.37,1.01s.12.73.37,1Z"/>
    <path class="cls-3" d="M74.9,11.4c.78,0,1.41.23,1.89.7.52.51.79,1.16.79,1.96s-.26,1.44-.79,1.95c-.47.47-1.1.7-1.89.7s-1.41-.23-1.89-.7c-.53-.51-.79-1.16-.79-1.95s.26-1.45.79-1.96c.47-.47,1.1-.7,1.89-.7ZM73.96,15.05c.25.28.56.42.94.42s.69-.14.94-.42c.25-.28.38-.61.38-.99s-.13-.73-.38-1c-.25-.28-.56-.42-.94-.42s-.69.14-.94.42c-.25.28-.38.61-.38,1s.13.71.38.99Z"/>
    <path class="cls-3" d="M79.06,12.89l-.6-.88c.48-.42,1.07-.62,1.77-.62.52,0,.94.11,1.24.33.35.25.53.61.53,1.06s-.22.82-.65,1.07c.23.06.44.17.62.33.24.23.36.54.36.92,0,.48-.18.87-.54,1.15-.36.29-.87.44-1.53.44-.83,0-1.5-.28-2.01-.83l.65-.85c.35.35.77.53,1.25.53.3,0,.51-.06.64-.17s.18-.25.18-.39c0-.18-.08-.32-.25-.42-.12-.06-.3-.09-.56-.09h-.55v-1.01h.53c.24,0,.41-.04.52-.12s.16-.19.16-.35c0-.34-.24-.51-.71-.51-.4,0-.75.13-1.04.39Z"/>
    <path class="cls-3" d="M83.33,16.55v-4.99h1.32v1.76h1.83v-1.76h1.32v4.99h-1.32v-2.03h-1.83v2.03h-1.32Z"/>
    <path class="cls-3" d="M92.63,12.2v-.65h1.32v4.99h-1.32v-.65c-.35.54-.83.81-1.44.81-.71,0-1.28-.26-1.72-.77s-.66-1.14-.66-1.89.22-1.38.65-1.89c.43-.51.99-.76,1.67-.76s1.18.27,1.5.81ZM92.4,13.04c-.24-.27-.55-.4-.93-.4s-.68.13-.93.4c-.24.27-.37.6-.37,1s.12.74.37,1.01c.24.27.55.41.93.41s.68-.14.93-.41c.24-.27.37-.61.37-1.01s-.12-.73-.37-1Z"/>
    <path class="cls-3" d="M97.86,16.55v-1.71c-.37.08-.74.12-1.1.12-.57,0-1-.15-1.31-.46-.28-.28-.42-.68-.42-1.18v-1.76h1.32v1.48c0,.25.05.43.16.54.12.12.35.18.67.18.22,0,.44-.02.68-.07v-2.13h1.32v4.99h-1.32Z"/>
    <path class="cls-3" d="M103.8,14.95l1.21.21c-.05.14-.12.27-.2.41-.08.13-.21.3-.38.5-.17.2-.41.35-.7.47-.29.12-.63.18-1.01.18-.73,0-1.33-.23-1.79-.7-.49-.49-.73-1.14-.73-1.95s.24-1.45.71-1.96c.45-.47,1.03-.7,1.76-.7.79,0,1.4.27,1.82.82.37.48.56,1.13.56,1.96v.12h-3.5c0,.34.08.62.23.84.22.31.53.47.94.47.49,0,.85-.22,1.09-.66ZM101.59,13.39h2.21c-.05-.32-.18-.57-.39-.74-.21-.17-.45-.26-.72-.26s-.49.09-.71.27c-.21.18-.34.42-.39.74Z"/>
    <path class="cls-3" d="M106.06,16.55v-4.99h1.32v1.76h1.83v-1.76h1.32v4.99h-1.32v-2.03h-1.83v2.03h-1.32Z"/>
    <path class="cls-3" d="M111.77,11.56h1.32v1.77h1.03c.55,0,.96.17,1.25.51.24.27.36.63.36,1.07,0,.55-.17.97-.5,1.27-.27.25-.61.37-1.05.37h-2.41v-4.99ZM113.09,15.44h.62c.22,0,.38-.04.49-.13.12-.09.17-.23.17-.4,0-.16-.06-.28-.17-.36-.1-.08-.25-.12-.45-.12h-.65v1ZM116.22,11.56h1.32v4.99h-1.32v-4.99Z"/>
    <path class="cls-3" d="M118.92,12.92c-.16-.17-.24-.39-.24-.64s.08-.47.24-.64c.16-.17.36-.26.6-.26s.44.09.6.26c.16.17.24.39.24.64s-.08.47-.24.64c-.16.17-.36.26-.6.26s-.44-.09-.6-.26ZM118.92,16.44c-.16-.17-.24-.39-.24-.64s.08-.47.24-.64c.16-.17.36-.26.6-.26s.44.09.6.26c.16.17.24.39.24.64s-.08.47-.24.64c-.16.17-.36.26-.6.26s-.44-.09-.6-.26Z"/>
    <path class="cls-3" d="M13.69,30.38v-6.4h-1.04v-1.29h2.44v7.69h-1.4Z"/>
    <path class="cls-3" d="M18.12,30.27c-.16-.17-.24-.39-.24-.64s.08-.47.24-.64c.16-.17.36-.26.6-.26s.44.09.6.26c.16.17.24.39.24.64s-.08.47-.24.64c-.16.17-.36.26-.6.26s-.44-.09-.6-.26Z"/>
    <path class="cls-3" d="M24.81,22.69v3.25l2.64-3.25h1.77l-3.04,3.55,3.2,4.14h-1.86l-2.56-3.45-.16.17v3.27h-1.4v-7.69h1.4Z"/>
    <path class="cls-3" d="M33.66,26.03v-.65h1.32v4.99h-1.32v-.65c-.35.54-.83.81-1.44.81-.71,0-1.28-.26-1.72-.77s-.66-1.14-.66-1.89.22-1.38.65-1.89c.43-.51.99-.76,1.67-.76s1.18.27,1.5.81ZM33.42,26.87c-.24-.27-.55-.4-.93-.4s-.68.13-.93.4c-.24.27-.37.6-.37,1s.12.74.37,1.01c.24.27.55.41.93.41s.68-.14.93-.41c.24-.27.37-.61.37-1.01s-.12-.73-.37-1Z"/>
    <path class="cls-3" d="M40.37,25.39v4.99h-1.32v-3.79h-1.27v1.83c0,.65-.15,1.14-.44,1.48-.3.35-.72.53-1.26.53-.14,0-.27-.02-.39-.05v-1.2c.09.02.15.02.21.02.24,0,.42-.08.54-.24.11-.14.16-.35.16-.63v-2.94h3.78Z"/>
    <path class="cls-3" d="M41.62,25.39h1.32v3.08l2.16-3.08h1.32v4.99h-1.32v-3.08l-2.16,3.08h-1.32v-4.99Z"/>
    <path class="cls-3" d="M47.67,30.38v-4.99h1.32v1.76h1.83v-1.76h1.32v4.99h-1.32v-2.03h-1.83v2.03h-1.32Z"/>
    <path class="cls-3" d="M53.38,25.39h1.32v3.08l2.16-3.08h1.32v4.99h-1.32v-3.08l-2.16,3.08h-1.32v-4.99Z"/>
    <path class="cls-3" d="M59.43,30.38v-4.99h1.32v1.76h1.83v-1.76h1.32v4.99h-1.32v-2.03h-1.83v2.03h-1.32Z"/>
    <path class="cls-3" d="M65.14,30.38v-4.99h2.98v1.2h-1.66v3.79h-1.32Z"/>
    <path class="cls-3" d="M70.13,29.73v3.32h-1.32v-7.66h1.32v.65c.36-.54.87-.81,1.52-.81s1.24.25,1.66.75c.42.5.64,1.13.64,1.9s-.22,1.4-.65,1.91c-.44.5-.99.75-1.68.75-.63,0-1.12-.27-1.49-.81ZM72.22,26.87c-.24-.27-.55-.4-.93-.4s-.68.13-.93.4c-.24.27-.37.6-.37,1s.12.74.37,1.01c.24.27.55.41.93.41s.68-.14.93-.41c.24-.27.37-.61.37-1.01s-.12-.73-.37-1Z"/>
    <path class="cls-3" d="M78.54,26.03v-.65h1.32v4.99h-1.32v-.65c-.35.54-.83.81-1.44.81-.71,0-1.28-.26-1.72-.77s-.66-1.14-.66-1.89.22-1.38.65-1.89c.43-.51.99-.76,1.67-.76s1.18.27,1.5.81ZM78.31,26.87c-.24-.27-.55-.4-.93-.4s-.68.13-.93.4c-.24.27-.37.6-.37,1s.12.74.37,1.01c.24.27.55.41.93.41s.68-.14.93-.41c.24-.27.37-.61.37-1.01s-.12-.73-.37-1Z"/>
    <path class="cls-3" d="M81.54,25.39h3.88v3.79h.69v2.65h-1.19v-1.45h-3.22v1.45h-1.19v-2.65c.37-.02.64-.23.83-.63.12-.28.18-.71.18-1.28v-1.88ZM84.11,29.18v-2.59h-1.38v1.11c0,.68-.17,1.17-.52,1.49h1.9Z"/>
    <path class="cls-3" d="M11.42,44.2l2.11-2.57c.69-.86,1.1-1.39,1.23-1.6.28-.45.42-.86.42-1.23,0-.35-.1-.63-.31-.84-.21-.22-.46-.32-.76-.32-.35,0-.62.12-.82.37-.2.25-.31.55-.32.9h-1.45c.03-.78.28-1.4.74-1.87.47-.47,1.06-.7,1.78-.7.79,0,1.41.24,1.86.73.45.48.67,1.06.67,1.72,0,.37-.08.74-.24,1.11-.16.37-.31.65-.45.84-.14.19-.35.44-.62.74l-1.24,1.44h2.6v1.29h-5.22Z"/>
    <path class="cls-3" d="M18.12,44.1c-.16-.17-.24-.39-.24-.64s.08-.47.24-.64c.16-.17.36-.26.6-.26s.44.09.6.26c.16.17.24.39.24.64s-.08.47-.24.64c-.16.17-.36.26-.6.26s-.44-.09-.6-.26Z"/>
    <path class="cls-3" d="M23.41,44.2v-7.69h4.17v1.29h-2.76v1.76h.97c.76,0,1.36.21,1.8.62.45.43.68,1,.68,1.71,0,.51-.13.96-.4,1.37-.41.62-1.1.93-2.07.93h-2.38ZM24.81,40.86v2.05h.67c.89,0,1.34-.33,1.34-1,0-.29-.1-.54-.3-.74-.2-.2-.54-.31-1.02-.31h-.69Z"/>
    <path class="cls-3" d="M32.95,39.86v-.65h1.32v4.99h-1.32v-.65c-.35.54-.83.81-1.44.81-.71,0-1.28-.26-1.72-.77s-.66-1.14-.66-1.89.22-1.38.65-1.89c.43-.51.99-.76,1.67-.76s1.18.27,1.5.81ZM32.71,40.7c-.24-.27-.55-.4-.93-.4s-.68.13-.93.4c-.24.27-.37.6-.37,1s.12.74.37,1.01c.24.27.55.41.93.41s.68-.14.93-.41c.24-.27.37-.61.37-1.01s-.12-.73-.37-1Z"/>
    <path class="cls-3" d="M39.66,39.21v4.99h-1.32v-3.79h-1.27v1.83c0,.65-.15,1.14-.44,1.48-.3.35-.72.53-1.26.53-.14,0-.27-.02-.39-.05v-1.2c.09.02.15.02.21.02.24,0,.42-.08.54-.24.11-.14.16-.35.16-.63v-2.94h3.78Z"/>
    <path class="cls-3" d="M44.26,40.41h-1.29v3.79h-1.32v-3.79h-1.29v-1.2h3.91v1.2Z"/>
    <path class="cls-3" d="M44.95,39.21h1.32v3.08l2.16-3.08h1.32v4.99h-1.32v-3.08l-2.16,3.08h-1.32v-4.99Z"/>
    <path class="cls-3" d="M50.99,39.21h1.32v3.08l2.16-3.08h1.32v4.99h-1.32v-3.08l-2.16,3.08h-1.32v-4.99ZM54.29,36.71l.86.44c-.14.43-.38.74-.72.92-.34.18-.69.27-1.05.27s-.71-.09-1.05-.27c-.34-.18-.58-.49-.72-.92l.86-.44c.04.21.15.38.32.52.17.14.36.21.59.21.21,0,.4-.06.57-.18.17-.12.28-.3.33-.54Z"/>
    <path class="cls-3" d="M60.55,39.35v1.38c-.29-.29-.65-.44-1.08-.44s-.74.14-.97.41c-.23.27-.35.6-.35,1s.13.75.38,1.01c.26.27.58.4.98.4s.73-.15,1.04-.44v1.37c-.39.21-.79.31-1.21.31-.73,0-1.33-.24-1.8-.73-.5-.5-.74-1.14-.74-1.91,0-.85.27-1.52.81-2.03.45-.43,1.01-.65,1.68-.65.45,0,.87.1,1.26.3Z"/>
    <path class="cls-3" d="M61.54,39.21h1.32v1.94l1.75-1.94h1.64l-2.11,2.22,2.22,2.77h-1.68l-1.62-2.06-.19.21v1.86h-1.32v-4.99Z"/>
    <path class="cls-3" d="M13.1,52.35h-1.32c.06-.68.31-1.22.74-1.6.43-.38.96-.58,1.6-.58.69,0,1.24.19,1.65.58.41.38.61.9.61,1.54,0,.75-.28,1.28-.83,1.61.73.32,1.1.93,1.1,1.83,0,.77-.24,1.37-.73,1.81s-1.1.66-1.84.66-1.3-.22-1.78-.65c-.48-.43-.75-1.01-.81-1.73h1.4c.04.33.17.6.38.79s.48.3.82.3c.37,0,.66-.12.86-.36.2-.24.3-.53.3-.86s-.1-.6-.3-.84c-.2-.24-.5-.36-.9-.36h-.18v-1.08h.19c.32,0,.57-.1.73-.31s.25-.45.25-.74c0-.31-.09-.55-.26-.74-.17-.18-.4-.28-.69-.28-.27,0-.49.09-.69.27-.19.18-.29.42-.31.74Z"/>
    <path class="cls-3" d="M18.12,57.92c-.16-.17-.24-.39-.24-.64s.08-.47.24-.64c.16-.17.36-.26.6-.26s.44.09.6.26c.16.17.24.39.24.64s-.08.47-.24.64c-.16.17-.36.26-.6.26s-.44-.09-.6-.26Z"/>
    <path class="cls-3" d="M24.1,50.35h4.9v7.69h-1.4v-6.4h-2.09v3.41c0,.29,0,.51-.01.66,0,.15-.03.35-.08.62-.04.27-.12.51-.24.71s-.27.39-.45.56c-.37.34-.85.51-1.44.51-.2,0-.4-.02-.59-.07v-1.29c.14.05.28.07.4.07.26,0,.47-.09.65-.28.12-.12.2-.29.25-.51.05-.22.08-.4.09-.55,0-.15.01-.4.01-.73v-4.4Z"/>
    <path class="cls-3" d="M34.03,53.69v-.65h1.32v4.99h-1.32v-.65c-.35.54-.83.81-1.44.81-.71,0-1.28-.26-1.72-.77s-.66-1.14-.66-1.89.22-1.38.65-1.89c.43-.51.99-.76,1.67-.76s1.18.27,1.5.81ZM33.79,54.53c-.24-.27-.55-.4-.93-.4s-.68.13-.93.4c-.24.27-.37.6-.37,1s.12.74.37,1.01c.24.27.55.41.93.41s.68-.14.93-.41c.24-.27.37-.61.37-1.01s-.12-.73-.37-1Z"/>
    <path class="cls-3" d="M37.03,53.04h3.88v3.79h.69v2.65h-1.19v-1.45h-3.22v1.45h-1.19v-2.65c.37-.02.64-.23.83-.63.12-.28.18-.71.18-1.28v-1.88ZM39.59,56.83v-2.59h-1.38v1.11c0,.68-.17,1.17-.52,1.49h1.9Z"/>
    <path class="cls-3" d="M42.22,60.71l1.72-3.42-2.22-4.24h1.53l1.45,2.83,1.29-2.83h1.49l-3.77,7.66h-1.49Z"/>
    <path class="cls-3" d="M48.12,58.03v-4.99h1.32v3.79h1.51v-3.79h1.32v3.79h1.51v-3.79h1.32v4.99h-6.97Z"/>
    <path class="cls-3" d="M56.34,53.04h1.32v1.94l1.75-1.94h1.64l-2.11,2.22,2.22,2.77h-1.68l-1.62-2.06-.19.21v1.86h-1.32v-4.99Z"/>
    <path class="cls-3" d="M61.73,53.04h1.32v3.08l2.16-3.08h1.32v4.99h-1.32v-3.08l-2.16,3.08h-1.32v-4.99Z"/>
    <path class="cls-3" d="M67.78,58.03v-4.99h1.32v1.76h1.83v-1.76h1.32v4.99h-1.32v-2.03h-1.83v2.03h-1.32Z"/>
    <path class="cls-3" d="M16.3,64.04v5.27h.84v1.2h-.84v1.36h-1.32v-1.36h-3.52v-.67l3.57-5.8h1.26ZM13.13,69.3h1.86v-3.05l-1.86,3.05Z"/>
    <path class="cls-3" d="M18.12,71.75c-.16-.17-.24-.39-.24-.64s.08-.47.24-.64c.16-.17.36-.26.6-.26s.44.09.6.26c.16.17.24.39.24.64s-.08.47-.24.64c-.16.17-.36.26-.6.26s-.44-.09-.6-.26Z"/>
    <path class="cls-3" d="M23.04,71.86l1.34-7.82h.97l1.95,5.02,2.04-5.02h.97l1.21,7.82h-1.42l-.65-4.74-1.97,4.84h-.39l-1.89-4.84-.73,4.74h-1.42Z"/>
    <path class="cls-3" d="M36.19,67.52v-.65h1.32v4.99h-1.32v-.65c-.35.54-.83.81-1.44.81-.71,0-1.28-.26-1.72-.77s-.66-1.14-.66-1.89.22-1.38.65-1.89c.43-.51.99-.76,1.67-.76s1.18.27,1.5.81ZM35.95,68.36c-.24-.27-.55-.4-.93-.4s-.68.13-.93.4c-.24.27-.37.6-.37,1s.12.74.37,1.01c.24.27.55.41.93.41s.68-.14.93-.41c.24-.27.37-.61.37-1.01s-.12-.73-.37-1Z"/>
    <path class="cls-3" d="M38.26,71.86l.85-5.13h.97l1.28,3.01,1.28-3.01h.97l.85,5.13h-1.32l-.39-2.71-1.21,2.81h-.39l-1.21-2.81-.39,2.71h-1.32Z"/>
    <path class="cls-3" d="M47.66,66.71c.78,0,1.41.23,1.89.7.52.51.79,1.16.79,1.96s-.26,1.44-.79,1.95c-.47.47-1.1.7-1.89.7s-1.41-.23-1.89-.7c-.53-.51-.79-1.16-.79-1.95s.26-1.45.79-1.96c.47-.47,1.1-.7,1.89-.7ZM46.73,70.36c.25.28.56.42.94.42s.69-.14.94-.42c.25-.28.38-.61.38-.99s-.13-.73-.38-1c-.25-.28-.56-.42-.94-.42s-.69.14-.94.42c-.25.28-.38.61-.38,1s.13.71.38.99Z"/>
    <path class="cls-3" d="M51.36,71.86v-4.99h1.32v1.76h1.83v-1.76h1.32v4.99h-1.32v-2.03h-1.83v2.03h-1.32Z"/>
    <path class="cls-3" d="M59.51,66.71c.78,0,1.41.23,1.89.7.52.51.79,1.16.79,1.96s-.26,1.44-.79,1.95c-.47.47-1.1.7-1.89.7s-1.41-.23-1.89-.7c-.53-.51-.79-1.16-.79-1.95s.26-1.45.79-1.96c.47-.47,1.1-.7,1.89-.7ZM58.57,70.36c.25.28.56.42.94.42s.69-.14.94-.42c.25-.28.38-.61.38-.99s-.13-.73-.38-1c-.25-.28-.56-.42-.94-.42s-.69.14-.94.42c-.25.28-.38.61-.38,1s.13.71.38.99Z"/>
    <path class="cls-3" d="M63.2,66.87h2.06c.5,0,.87.1,1.11.3.3.25.45.57.45.98,0,.21-.06.42-.17.6-.11.19-.27.33-.48.42.23.05.44.15.62.32.24.23.36.54.36.93,0,.47-.17.84-.5,1.11-.27.22-.62.32-1.05.32h-2.41v-4.99ZM64.52,68.85h.6c.14,0,.25-.03.35-.09.11-.08.17-.19.17-.35s-.05-.28-.15-.36c-.07-.05-.2-.08-.39-.08h-.58v.88ZM64.52,70.75h.62c.22,0,.38-.04.49-.13.12-.09.17-.23.17-.4,0-.16-.06-.28-.17-.36-.1-.08-.25-.12-.45-.12h-.65v1Z"/>
    <path class="cls-3" d="M70.56,66.71c.78,0,1.41.23,1.89.7.52.51.79,1.16.79,1.96s-.26,1.44-.79,1.95c-.47.47-1.1.7-1.89.7s-1.41-.23-1.89-.7c-.53-.51-.79-1.16-.79-1.95s.26-1.45.79-1.96c.47-.47,1.1-.7,1.89-.7ZM69.62,70.36c.25.28.56.42.94.42s.69-.14.94-.42c.25-.28.38-.61.38-.99s-.13-.73-.38-1c-.25-.28-.56-.42-.94-.42s-.69.14-.94.42c-.25.28-.38.61-.38,1s.13.71.38.99Z"/>
    <path class="cls-3" d="M16.32,78v1.29h-2.4l-.26,1.21c.19-.03.35-.05.47-.05.73,0,1.33.23,1.8.7s.71,1.1.71,1.91-.24,1.46-.71,1.99-1.17.81-2.11.81-1.69-.33-2.32-.98l.46-1.29c.5.65,1.1.98,1.82.98.43,0,.78-.14,1.05-.42.27-.28.4-.63.4-1.07s-.14-.79-.42-1.09c-.28-.3-.68-.45-1.21-.45s-.97.17-1.38.5h-.09l.85-4.03h3.32Z"/>
    <path class="cls-3" d="M18.12,85.58c-.16-.17-.24-.39-.24-.64s.08-.47.24-.64c.16-.17.36-.26.6-.26s.44.09.6.26c.16.17.24.39.24.64s-.08.47-.24.64c-.16.17-.36.26-.6.26s-.44-.09-.6-.26Z"/>
    <path class="cls-3" d="M23.41,78h5.7v7.69h-1.4v-6.4h-2.89v6.4h-1.4v-7.69Z"/>
    <path class="cls-3" d="M30.55,80.7h1.32v3.08l2.16-3.08h1.32v4.99h-1.32v-3.08l-2.16,3.08h-1.32v-4.99Z"/>
    <path class="cls-3" d="M39.03,80.54c.78,0,1.41.23,1.89.7.52.51.79,1.16.79,1.96s-.26,1.44-.79,1.95c-.47.47-1.1.7-1.89.7s-1.41-.23-1.89-.7c-.53-.51-.79-1.16-.79-1.95s.26-1.45.79-1.96c.47-.47,1.1-.7,1.89-.7ZM38.1,84.19c.25.28.56.42.94.42s.69-.14.94-.42c.25-.28.38-.61.38-.99s-.13-.73-.38-1c-.25-.28-.56-.42-.94-.42s-.69.14-.94.42c-.25.28-.38.61-.38,1s.13.71.38.99Z"/>
    <path class="cls-3" d="M42.72,85.69v-4.99h1.32v1.76h1.83v-1.76h1.32v4.99h-1.32v-2.03h-1.83v2.03h-1.32Z"/>
    <path class="cls-3" d="M51.82,84.09l1.21.21c-.05.14-.12.27-.2.41-.08.13-.21.3-.38.5-.17.2-.41.35-.7.47-.29.12-.63.18-1.01.18-.73,0-1.33-.23-1.79-.7-.49-.49-.73-1.14-.73-1.95s.24-1.45.71-1.96c.45-.47,1.03-.7,1.76-.7.79,0,1.4.27,1.82.82.37.48.56,1.13.56,1.96v.12h-3.5c0,.34.08.62.23.84.22.31.53.47.94.47.49,0,.85-.22,1.09-.66ZM49.61,82.53h2.21c-.05-.32-.18-.57-.39-.74-.21-.17-.45-.26-.72-.26s-.49.09-.71.27c-.21.18-.34.42-.39.74Z"/>
    <path class="cls-3" d="M55.39,85.04v3.32h-1.32v-7.66h1.32v.65c.36-.54.87-.81,1.52-.81s1.24.25,1.66.75c.42.5.64,1.13.64,1.9s-.22,1.4-.65,1.91c-.44.5-.99.75-1.68.75-.63,0-1.12-.27-1.49-.81ZM57.48,82.19c-.24-.27-.55-.4-.93-.4s-.68.13-.93.4c-.24.27-.37.6-.37,1s.12.74.37,1.01c.24.27.55.41.93.41s.68-.14.93-.41c.24-.27.37-.61.37-1.01s-.12-.73-.37-1Z"/>
    <path class="cls-3" d="M63.74,80.84v1.38c-.29-.29-.65-.44-1.08-.44s-.74.14-.97.41c-.23.27-.35.6-.35,1s.13.75.38,1.01c.26.27.58.4.98.4s.73-.15,1.04-.44v1.37c-.39.21-.79.31-1.21.31-.73,0-1.33-.24-1.8-.73-.5-.5-.74-1.14-.74-1.91,0-.85.27-1.52.81-2.03.45-.43,1.01-.65,1.68-.65.45,0,.87.1,1.26.3Z"/>
    <path class="cls-3" d="M64.73,80.7h1.32v1.94l1.75-1.94h1.64l-2.11,2.22,2.22,2.77h-1.68l-1.62-2.06-.19.21v1.86h-1.32v-4.99Z"/>
    <path class="cls-3" d="M70.13,80.7h1.32v3.08l2.16-3.08h1.32v4.99h-1.32v-3.08l-2.16,3.08h-1.32v-4.99Z"/>
    <path class="cls-3" d="M76.17,80.7h1.32v3.08l2.16-3.08h1.32v4.99h-1.32v-3.08l-2.16,3.08h-1.32v-4.99ZM79.47,78.2l.86.44c-.14.43-.38.74-.72.92-.34.18-.69.27-1.05.27s-.71-.09-1.05-.27c-.34-.18-.58-.49-.72-.92l.86-.44c.04.21.15.38.32.52.17.14.36.21.59.21.21,0,.4-.06.57-.18.17-.12.28-.3.33-.54Z"/>
    <path class="cls-3" d="M14.65,91.51l.99.81-1.7,2.33c.27-.12.54-.18.81-.18.62,0,1.15.23,1.6.67.45.45.67,1.06.67,1.83s-.23,1.4-.69,1.93c-.46.53-1.14.8-2.04.8s-1.54-.26-2.02-.77c-.47-.51-.71-1.14-.71-1.88s.3-1.54.91-2.4l2.19-3.13ZM13.33,98.09c.25.27.57.4.95.4s.7-.13.95-.4c.25-.27.38-.61.38-1.01s-.13-.75-.38-1.01c-.25-.27-.57-.4-.95-.4s-.7.13-.95.4c-.25.27-.38.61-.38,1.01s.13.75.38,1.01Z"/>
    <path class="cls-3" d="M18.12,99.41c-.16-.17-.24-.39-.24-.64s.08-.47.24-.64c.16-.17.36-.26.6-.26s.44.09.6.26c.16.17.24.39.24.64s-.08.47-.24.64c-.16.17-.36.26-.6.26s-.44-.09-.6-.26Z"/>
    <path class="cls-3" d="M28.63,97.49v1.75c-.53.3-1.13.45-1.78.45-1.05,0-1.93-.36-2.63-1.07-.77-.79-1.15-1.77-1.15-2.94,0-1.24.38-2.25,1.15-3.01.68-.68,1.56-1.01,2.64-1.01.63,0,1.22.16,1.77.47v1.75c-.47-.58-1.05-.86-1.74-.86s-1.28.26-1.72.79-.66,1.16-.66,1.9c0,.81.24,1.45.73,1.92.49.47,1.06.71,1.7.71s1.24-.28,1.68-.84Z"/>
    <path class="cls-3" d="M29.73,94.53h2.06c.5,0,.87.1,1.11.3.3.25.45.57.45.98,0,.21-.06.42-.17.6-.11.19-.27.33-.48.42.23.05.44.15.62.32.24.23.36.54.36.93,0,.47-.17.84-.5,1.11-.27.22-.62.32-1.05.32h-2.41v-4.99ZM31.05,96.51h.6c.14,0,.25-.03.35-.09.11-.08.17-.19.17-.35s-.05-.28-.15-.36c-.07-.05-.2-.08-.39-.08h-.58v.88ZM31.05,98.41h.62c.22,0,.38-.04.49-.13.12-.09.17-.23.17-.4,0-.16-.06-.28-.17-.36-.1-.08-.25-.12-.45-.12h-.65v1Z"/>
    <path class="cls-3" d="M38.03,97.92l1.21.21c-.05.14-.12.27-.2.41-.08.13-.21.3-.38.5-.17.2-.41.35-.7.47-.29.12-.63.18-1.01.18-.73,0-1.33-.23-1.79-.7-.49-.49-.73-1.14-.73-1.95s.24-1.45.71-1.96c.45-.47,1.03-.7,1.76-.7.79,0,1.4.27,1.82.82.37.48.56,1.13.56,1.96v.12h-3.5c0,.34.08.62.23.84.22.31.53.47.94.47.49,0,.85-.22,1.09-.66ZM35.82,96.36h2.21c-.05-.32-.18-.57-.39-.74-.21-.17-.45-.26-.72-.26s-.49.09-.71.27c-.21.18-.34.42-.39.74Z"/>
    <path class="cls-3" d="M43.63,95.73h-1.29v3.79h-1.32v-3.79h-1.29v-1.2h3.91v1.2Z"/>
    <path class="cls-3" d="M48.46,94.53v4.99h-1.32v-3.79h-1.27v1.83c0,.65-.15,1.14-.44,1.48-.3.35-.72.53-1.26.53-.14,0-.27-.02-.39-.05v-1.2c.09.02.15.02.21.02.24,0,.42-.08.54-.24.11-.14.16-.35.16-.63v-2.94h3.78Z"/>
    <path class="cls-3" d="M49.72,94.53h1.32v1.77h1.03c.55,0,.96.17,1.25.51.24.27.36.63.36,1.07,0,.55-.17.97-.5,1.27-.27.25-.61.37-1.05.37h-2.41v-4.99ZM51.03,98.41h.62c.22,0,.38-.04.49-.13.12-.09.17-.23.17-.4,0-.16-.06-.28-.17-.36-.1-.08-.25-.12-.45-.12h-.65v1ZM54.16,94.53h1.32v4.99h-1.32v-4.99Z"/>
    <path class="cls-3" d="M56.73,94.53h1.32v3.08l2.16-3.08h1.32v4.99h-1.32v-3.08l-2.16,3.08h-1.32v-4.99ZM60.03,92.03l.86.44c-.14.43-.38.74-.72.92-.34.18-.69.27-1.05.27s-.71-.09-1.05-.27c-.34-.18-.58-.49-.72-.92l.86-.44c.04.21.15.38.32.52.17.14.36.21.59.21.21,0,.4-.06.57-.18.17-.12.28-.3.33-.54Z"/>
    <path class="cls-3" d="M11.82,112.89l3.25-5.93h-3.34v-1.29h5.55l-4.38,8.01-1.07-.78Z"/>
    <path class="cls-3" d="M18.12,113.24c-.16-.17-.24-.39-.24-.64s.08-.47.24-.64c.16-.17.36-.26.6-.26s.44.09.6.26c.16.17.24.39.24.64s-.08.47-.24.64c-.16.17-.36.26-.6.26s-.44-.09-.6-.26Z"/>
    <path class="cls-3" d="M28.63,111.32v1.75c-.53.3-1.13.45-1.78.45-1.05,0-1.93-.36-2.63-1.07-.77-.79-1.15-1.77-1.15-2.94,0-1.24.38-2.25,1.15-3.01.68-.68,1.56-1.01,2.64-1.01.63,0,1.22.16,1.77.47v1.75c-.47-.58-1.05-.86-1.74-.86s-1.28.26-1.72.79-.66,1.16-.66,1.9c0,.81.24,1.45.73,1.92.49.47,1.06.71,1.7.71s1.24-.28,1.68-.84Z"/>
    <path class="cls-3" d="M29.73,108.36h2.06c.5,0,.87.1,1.11.3.3.25.45.57.45.98,0,.21-.06.42-.17.6-.11.19-.27.33-.48.42.23.05.44.15.62.32.24.23.36.54.36.93,0,.47-.17.84-.5,1.11-.27.22-.62.32-1.05.32h-2.41v-4.99ZM31.05,110.34h.6c.14,0,.25-.03.35-.09.11-.08.17-.19.17-.35s-.05-.28-.15-.36c-.07-.05-.2-.08-.39-.08h-.58v.88ZM31.05,112.24h.62c.22,0,.38-.04.49-.13.12-.09.17-.23.17-.4,0-.16-.06-.28-.17-.36-.1-.08-.25-.12-.45-.12h-.65v1Z"/>
    <path class="cls-3" d="M38.03,111.74l1.21.21c-.05.14-.12.27-.2.41-.08.13-.21.3-.38.5-.17.2-.41.35-.7.47-.29.12-.63.18-1.01.18-.73,0-1.33-.23-1.79-.7-.49-.49-.73-1.14-.73-1.95s.24-1.45.71-1.96c.45-.47,1.03-.7,1.76-.7.79,0,1.4.27,1.82.82.37.48.56,1.13.56,1.96v.12h-3.5c0,.34.08.62.23.84.22.31.53.47.94.47.49,0,.85-.22,1.09-.66ZM35.82,110.19h2.21c-.05-.32-.18-.57-.39-.74-.21-.17-.45-.26-.72-.26s-.49.09-.71.27c-.21.18-.34.42-.39.74Z"/>
    <path class="cls-3" d="M43.63,109.56h-1.29v3.79h-1.32v-3.79h-1.29v-1.2h3.91v1.2Z"/>
    <path class="cls-3" d="M48.46,108.36v4.99h-1.32v-3.79h-1.27v1.83c0,.65-.15,1.14-.44,1.48-.3.35-.72.53-1.26.53-.14,0-.27-.02-.39-.05v-1.2c.09.02.15.02.21.02.24,0,.42-.08.54-.24.11-.14.16-.35.16-.63v-2.94h3.78Z"/>
    <path class="cls-3" d="M52.15,108.2c.78,0,1.41.23,1.89.7.52.51.79,1.16.79,1.96s-.26,1.44-.79,1.95c-.47.47-1.1.7-1.89.7s-1.41-.23-1.89-.7c-.53-.51-.79-1.16-.79-1.95s.26-1.45.79-1.96c.47-.47,1.1-.7,1.89-.7ZM51.21,111.85c.25.28.56.42.94.42s.69-.14.94-.42c.25-.28.38-.61.38-.99s-.13-.73-.38-1c-.25-.28-.56-.42-.94-.42s-.69.14-.94.42c-.25.28-.38.61-.38,1s.13.71.38.99Z"/>
    <path class="cls-3" d="M55.84,113.35v-4.99h2.98v1.2h-1.66v3.79h-1.32Z"/>
    <path class="cls-3" d="M61.95,108.2c.78,0,1.41.23,1.89.7.52.51.79,1.16.79,1.96s-.26,1.44-.79,1.95c-.47.47-1.1.7-1.89.7s-1.41-.23-1.89-.7c-.53-.51-.79-1.16-.79-1.95s.26-1.45.79-1.96c.47-.47,1.1-.7,1.89-.7ZM61.01,111.85c.25.28.56.42.94.42s.69-.14.94-.42c.25-.28.38-.61.38-.99s-.13-.73-.38-1c-.25-.28-.56-.42-.94-.42s-.69.14-.94.42c-.25.28-.38.61-.38,1s.13.71.38.99Z"/>
    <path class="cls-3" d="M66.96,112.7v3.32h-1.32v-7.66h1.32v.65c.36-.54.87-.81,1.52-.81s1.24.25,1.66.75c.42.5.64,1.13.64,1.9s-.22,1.4-.65,1.91c-.44.5-.99.75-1.68.75-.63,0-1.12-.27-1.49-.81ZM69.05,109.84c-.24-.27-.55-.4-.93-.4s-.68.13-.93.4c-.24.27-.37.6-.37,1s.12.74.37,1.01c.24.27.55.41.93.41s.68-.14.93-.41c.24-.27.37-.61.37-1.01s-.12-.73-.37-1Z"/>
    <path class="cls-3" d="M75.31,108.49v1.38c-.29-.29-.65-.44-1.08-.44s-.74.14-.97.41c-.23.27-.35.6-.35,1s.13.75.38,1.01c.26.27.58.4.98.4s.73-.15,1.04-.44v1.37c-.39.21-.79.31-1.21.31-.73,0-1.33-.24-1.8-.73-.5-.5-.74-1.14-.74-1.91,0-.85.27-1.52.81-2.03.45-.43,1.01-.65,1.68-.65.45,0,.87.1,1.26.3Z"/>
    <path class="cls-3" d="M76.3,108.36h1.32v1.94l1.75-1.94h1.64l-2.11,2.22,2.22,2.77h-1.68l-1.62-2.06-.19.21v1.86h-1.32v-4.99Z"/>
    <path class="cls-3" d="M15.51,123.16c.4.14.71.38.94.73.23.35.35.74.35,1.19,0,.65-.23,1.19-.69,1.62-.46.43-1.06.65-1.82.65s-1.36-.21-1.82-.65c-.46-.43-.69-.97-.69-1.62,0-.45.11-.84.35-1.19.23-.35.54-.59.94-.73-.3-.16-.55-.39-.74-.67s-.29-.63-.29-1.03c0-.6.2-1.11.59-1.52.4-.42.95-.62,1.66-.62s1.27.21,1.66.62.59.92.59,1.52c0,.4-.1.74-.29,1.03s-.44.51-.74.67ZM13.51,125.83c.21.23.47.34.79.34s.58-.11.79-.34c.21-.23.31-.51.31-.86s-.1-.63-.31-.86c-.21-.23-.47-.34-.79-.34s-.58.11-.79.34-.31.51-.31.86.1.63.31.86ZM13.57,122.24c.19.2.43.3.72.3s.54-.1.72-.3.28-.46.28-.77-.09-.57-.28-.77-.43-.3-.72-.3-.54.1-.72.3-.28.46-.28.77.09.57.28.77Z"/>
    <path class="cls-3" d="M18.12,127.07c-.16-.17-.24-.39-.24-.64s.08-.47.24-.64c.16-.17.36-.26.6-.26s.44.09.6.26c.16.17.24.39.24.64s-.08.47-.24.64c-.16.17-.36.26-.6.26s-.44-.09-.6-.26Z"/>
    <path class="cls-3" d="M28.63,125.15v1.75c-.53.3-1.13.45-1.78.45-1.05,0-1.93-.36-2.63-1.07-.77-.79-1.15-1.77-1.15-2.94,0-1.24.38-2.25,1.15-3.01.68-.68,1.56-1.01,2.64-1.01.63,0,1.22.16,1.77.47v1.75c-.47-.58-1.05-.86-1.74-.86s-1.28.26-1.72.79-.66,1.16-.66,1.9c0,.81.24,1.45.73,1.92.49.47,1.06.71,1.7.71s1.24-.28,1.68-.84Z"/>
    <path class="cls-3" d="M32.17,122.02c.78,0,1.41.23,1.89.7.52.51.79,1.16.79,1.96s-.26,1.44-.79,1.95c-.47.47-1.1.7-1.89.7s-1.41-.23-1.89-.7c-.53-.51-.79-1.16-.79-1.95s.26-1.45.79-1.96c.47-.47,1.1-.7,1.89-.7ZM31.23,125.68c.25.28.56.42.94.42s.69-.14.94-.42c.25-.28.38-.61.38-.99s-.13-.73-.38-1c-.25-.28-.56-.42-.94-.42s-.69.14-.94.42c-.25.28-.38.61-.38,1s.13.71.38.99Z"/>
    <path class="cls-3" d="M35.86,122.19h2.06c.5,0,.87.1,1.11.3.3.25.45.57.45.98,0,.21-.06.42-.17.6-.11.19-.27.33-.48.42.23.05.44.15.62.32.24.23.36.54.36.93,0,.47-.17.84-.5,1.11-.27.22-.62.32-1.05.32h-2.41v-4.99ZM37.18,124.17h.6c.14,0,.25-.03.35-.09.11-.08.17-.19.17-.35s-.05-.28-.15-.36c-.07-.05-.2-.08-.39-.08h-.58v.88ZM37.18,126.07h.62c.22,0,.38-.04.49-.13.12-.09.17-.23.17-.4,0-.16-.06-.28-.17-.36-.1-.08-.25-.12-.45-.12h-.65v1Z"/>
    <path class="cls-3" d="M44.16,125.57l1.21.21c-.05.14-.12.27-.2.41-.08.13-.21.3-.38.5-.17.2-.41.35-.7.47-.29.12-.63.18-1.01.18-.73,0-1.33-.23-1.79-.7-.49-.49-.73-1.14-.73-1.95s.24-1.45.71-1.96c.45-.47,1.03-.7,1.76-.7.79,0,1.4.27,1.82.82.37.48.56,1.13.56,1.96v.12h-3.5c0,.34.08.62.23.84.22.31.53.47.94.47.49,0,.85-.22,1.09-.66ZM41.95,124.02h2.21c-.05-.32-.18-.57-.39-.74-.21-.17-.45-.26-.72-.26s-.49.09-.71.27c-.21.18-.34.42-.39.74Z"/>
    <path class="cls-3" d="M49.76,123.38h-1.29v3.79h-1.32v-3.79h-1.29v-1.2h3.91v1.2Z"/>
    <path class="cls-3" d="M53.97,122.32v1.38c-.29-.29-.65-.44-1.08-.44s-.74.14-.97.41c-.23.27-.35.6-.35,1s.13.75.38,1.01c.26.27.58.4.98.4s.73-.15,1.04-.44v1.37c-.39.21-.79.31-1.21.31-.73,0-1.33-.24-1.8-.73-.5-.5-.74-1.14-.74-1.91,0-.85.27-1.52.81-2.03.45-.43,1.01-.65,1.68-.65.45,0,.87.1,1.26.3Z"/>
    <path class="cls-3" d="M54.96,122.19h1.32v1.94l1.75-1.94h1.64l-2.11,2.22,2.22,2.77h-1.68l-1.62-2.06-.19.21v1.86h-1.32v-4.99Z"/>
    <path class="cls-3" d="M13.94,141.33l-.99-.81,1.71-2.33c-.27.12-.54.18-.81.18-.62,0-1.15-.22-1.6-.67-.45-.45-.67-1.06-.67-1.83s.23-1.4.69-1.93c.46-.53,1.14-.8,2.04-.8s1.54.26,2.02.77c.47.51.71,1.14.71,1.88s-.3,1.54-.91,2.4l-2.19,3.13ZM15.25,134.75c-.25-.27-.57-.4-.95-.4s-.7.13-.95.4c-.25.27-.38.61-.38,1.01s.13.75.38,1.01c.25.27.57.4.95.4s.7-.13.95-.4c.25-.27.38-.61.38-1.01s-.13-.75-.38-1.01Z"/>
    <path class="cls-3" d="M18.12,140.89c-.16-.17-.24-.39-.24-.64s.08-.47.24-.64c.16-.17.36-.26.6-.26s.44.09.6.26c.16.17.24.39.24.64s-.08.47-.24.64c-.16.17-.36.26-.6.26s-.44-.09-.6-.26Z"/>
    <path class="cls-3" d="M27.9,133.32v7.69h-1.4v-2.97h-.26l-1.83,2.97h-1.68l2.14-3.11c-.29-.05-.55-.16-.79-.35-.54-.42-.81-1.03-.81-1.86,0-.75.24-1.34.71-1.79.42-.39,1.03-.59,1.85-.59h2.08ZM26.5,134.54h-.43c-.12,0-.23,0-.33.02-.11.02-.25.06-.43.12-.18.07-.32.18-.43.36s-.16.39-.16.65c0,.78.46,1.16,1.38,1.16h.41v-2.32Z"/>
    <path class="cls-3" d="M29.35,141v-4.99h1.32v1.76h1.83v-1.76h1.32v4.99h-1.32v-2.03h-1.83v2.03h-1.32Z"/>
    <path class="cls-3" d="M38.41,137.21h-1.29v3.79h-1.32v-3.79h-1.29v-1.2h3.91v1.2Z"/>
    <path class="cls-3" d="M42.68,136.66v-.65h1.32v4.99h-1.32v-.65c-.35.54-.83.81-1.44.81-.71,0-1.28-.26-1.72-.77s-.66-1.14-.66-1.89.22-1.38.65-1.89c.43-.51.99-.76,1.67-.76s1.18.27,1.5.81ZM42.44,137.5c-.24-.27-.55-.4-.93-.4s-.68.13-.93.4c-.24.27-.37.6-.37,1s.12.74.37,1.01c.24.27.55.41.93.41s.68-.14.93-.41c.24-.27.37-.61.37-1.01s-.12-.73-.37-1Z"/>
    <path class="cls-3" d="M46.56,140.36v3.32h-1.32v-7.66h1.32v.65c.36-.54.87-.81,1.52-.81s1.24.25,1.66.75c.42.5.64,1.13.64,1.9s-.22,1.4-.65,1.91c-.44.5-.99.75-1.68.75-.63,0-1.12-.27-1.49-.81ZM48.66,137.5c-.24-.27-.55-.4-.93-.4s-.68.13-.93.4c-.24.27-.37.6-.37,1s.12.74.37,1.01c.24.27.55.41.93.41s.68-.14.93-.41c.24-.27.37-.61.37-1.01s-.12-.73-.37-1Z"/>
    <path class="cls-3" d="M51.4,141v-4.99h1.32v1.76h1.83v-1.76h1.32v4.99h-1.32v-2.03h-1.83v2.03h-1.32Z"/>
    <path class="cls-3" d="M57.12,136.01h1.32v1.77h1.03c.55,0,.96.17,1.25.51.24.27.36.63.36,1.07,0,.55-.17.97-.5,1.27-.27.25-.61.37-1.05.37h-2.41v-4.99ZM58.43,139.9h.62c.22,0,.38-.04.49-.13.12-.09.17-.23.17-.4,0-.16-.06-.28-.17-.36-.1-.08-.25-.12-.45-.12h-.65v1ZM61.56,136.01h1.32v4.99h-1.32v-4.99Z"/>
    <path class="cls-3" d="M64.13,136.01h1.32v3.08l2.16-3.08h1.32v4.99h-1.32v-3.08l-2.16,3.08h-1.32v-4.99ZM67.43,133.51l.86.44c-.14.43-.38.74-.72.92-.34.18-.69.27-1.05.27s-.71-.09-1.05-.27c-.34-.18-.58-.49-.72-.92l.86-.44c.04.21.15.38.32.52.17.14.36.21.59.21.21,0,.4-.06.57-.18.17-.12.28-.3.33-.54Z"/>
  </g>
  <g id="_названия" data-name="названия">
    <text class="cls-2" transform="translate(328.26 361.72) scale(.97 1)"><tspan x="0" y="0">П</tspan><tspan class="cls-15" x="7.84" y="0">Р</tspan><tspan x="13.49" y="0">АВДИНСКИЙ</tspan></text>
    <text class="cls-2" transform="translate(129.59 341.1) scale(.97 1)"><tspan x="0" y="0">БАГ</tspan><tspan class="cls-16" x="19.34" y="0">Р</tspan><tspan class="cls-14" x="24.99" y="0">А</tspan><tspan x="32.67" y="0">ТИОНОВСКИЙ</tspan></text>
    <text class="cls-2" transform="translate(300.64 272.63) scale(.97 1)"><tspan x="0" y="0">ГВА</tspan><tspan class="cls-18" x="19.34" y="0">Р</tspan><tspan x="25.4" y="0">ДЕЙСКИЙ</tspan></text>
    <text class="cls-2" transform="translate(216.54 206.54) scale(.97 1)"><tspan x="0" y="0">ГУРЬЕВСКИЙ</tspan></text>
    <text class="cls-2" transform="translate(341.85 198) scale(.97 1)"><tspan x="0" y="0">ПОЛЕССКИЙ</tspan></text>
    <text class="cls-2" transform="translate(563.8 281.9) scale(.97 1)"><tspan x="0" y="0">Г</tspan><tspan class="cls-1" x="5.02" y="0">У</tspan><tspan x="11.95" y="0">СЕВСКИЙ</tspan></text>
    <text class="cls-2" transform="translate(437.4 276.86) scale(.97 1)"><tspan x="0" y="0">ЧЕРНЯХОВСКИЙ</tspan></text>
    <text class="cls-2" transform="translate(510.95 363.44) scale(.97 1)"><tspan x="0" y="0">ОЗЁРСКИЙ</tspan></text>
    <text class="cls-2" transform="translate(100.75 181.89) scale(.97 1)"><tspan x="0" y="0">ЗЕЛЕНОГ</tspan><tspan class="cls-16" x="48.31" y="0">Р</tspan><tspan x="53.96" y="0">АДСКИЙ</tspan></text>
    <text class="cls-4" transform="translate(171.46 245.15) scale(.97 1)"><tspan x="0" y="0">КАЛИНИНГ</tspan><tspan class="cls-19" x="40.58" y="0">Р</tspan><tspan x="44.35" y="0">АД</tspan></text>
    <text class="cls-2" transform="translate(614.88 183.62) scale(.97 1)"><tspan x="0" y="0">К</tspan><tspan class="cls-15" x="7.33" y="0">Р</tspan><tspan class="cls-17" x="12.99" y="0">А</tspan><tspan class="cls-13" x="20.72" y="0">СНОЗНАМЕНСКИЙ</tspan></text>
    <text class="cls-4" transform="translate(55.11 348.71) scale(.97 1)"><tspan x="0" y="0">МАМОНОВО</tspan></text>
    <text class="cls-2" transform="translate(513.07 151.58) scale(.97 1)"><tspan x="0" y="0">НЕМАНСКИЙ</tspan></text>
    <text class="cls-2" transform="translate(407.5 119.21) scale(.97 1)"><tspan x="0" y="0">СЛАВСКИЙ</tspan></text>
    <text class="cls-6" transform="translate(632.74 304.21) scale(.97 1)"><tspan x="0" y="0">НЕСТЕРОВСКИЙ</tspan></text>
  </g>
  <g id="_цифры" data-name="цифры">
    <text class="cls-5" transform="translate(510.87 106.86) scale(.97 1)"><tspan x="0" y="0">8</tspan></text>
    <text class="cls-5" transform="translate(140.67 146.03) scale(.97 1)"><tspan x="0" y="0">5</tspan></text>
    <text class="cls-5" transform="translate(88.31 232.4) scale(.97 1)"><tspan x="0" y="0">2</tspan></text>
    <text class="cls-5" transform="translate(70.3 179.83) scale(.97 1)"><tspan x="0" y="0">9</tspan></text>
    <text class="cls-5" transform="translate(121.24 151.76) scale(.97 1)"><tspan x="0" y="0">7</tspan></text>
    <text class="cls-5" transform="translate(129.59 304.21) scale(.97 1)"><tspan x="0" y="0">3</tspan></text>
    <text class="cls-5" transform="translate(144.61 250.68) scale(.97 1)"><tspan x="0" y="0">6</tspan></text>
    <text class="cls-2" transform="translate(209.81 258.86) scale(.94 1)"><tspan x="0" y="0">1</tspan></text>
    <text class="cls-6" transform="translate(99.59 355.61) scale(.97 1)"><tspan x="0" y="0">4</tspan></text>
  </g>
</svg>